*
G04 Mass Parameters ***
*
G04 Image ***
*
%INF:\EIS\PROJECTS\TRANSCONDUCTANCE AMPLIFIER\ORCAD\LAYOUT\EIS_NICU_BOARD-10.TOP*%
%ICAS*%
%MOIN*%
%IPPOS*%
%ASAXBY*%
G74*%FSLAN2X34Y34*%
*
G04 Aperture Definitions ***
*
%ADD10C,0.0550*%
%ADD11R,0.0550X0.0550*%
%ADD12C,0.0580*%
%ADD13C,0.1000*%
%ADD14R,0.0970X0.0970*%
%ADD15R,0.0580X0.0580*%
%ADD16C,0.0640*%
%ADD17C,0.1100*%
%ADD18C,0.0300*%
%ADD19C,0.0500*%
*
G04 Plot Data ***
*
G54D18*
G01X0025000Y0011000D02*
X0021500D01*
X0021000Y0011500D01*
Y0012500D01*
X0021500Y0013000D01*
X0033000D01*
X0022000Y0005000D02*
Y0004000D01*
X0024500D01*
X0025500Y0005000D01*
X0026000D01*
X0019715Y0002780D02*
X0021500D01*
X0022000Y0003280D01*
Y0005000D01*
X0013000Y0026000D02*
X0015250Y0023750D01*
X0021000D01*
X0021500Y0023250D01*
X0022223D01*
X0022473Y0023000D01*
Y0022024D01*
X0019715Y0006717D02*
X0021000D01*
X0021717Y0006000D01*
X0023000D01*
X0024000Y0005000D01*
X0031000Y0026000D02*
X0026000D01*
X0024500Y0024500D01*
Y0021500D01*
X0024000Y0021000D01*
X0022985D01*
X0016000Y0026000D02*
X0017500D01*
X0018500Y0025000D01*
X0023900D01*
X0024400Y0024500D01*
X0024500D01*
Y0021500D01*
X0024000Y0021000D01*
X0022985D01*
X0022000Y0012000D02*
X0029000D01*
X0030000Y0011000D01*
X0013000Y0028000D02*
Y0027000D01*
X0017500D01*
X0018500Y0028000D01*
X0022250D01*
X0022750Y0027500D01*
X0029000Y0029000D02*
X0017000D01*
X0015750Y0009250D02*
X0020500D01*
X0021250Y0010000D01*
X0026000D01*
X0032000Y0011000D02*
X0030000Y0009000D01*
X0029000Y0008000D01*
Y0007000D01*
X0022985Y0021000D02*
X0019914D01*
X0022000Y0015000D02*
X0023000Y0014000D01*
X0031400D01*
X0032000Y0014600D01*
Y0015000D01*
X0022000Y0009000D02*
X0027000D01*
X0028000Y0008000D01*
X0029000D01*
Y0007000D01*
X0026000Y0015000D02*
Y0015400D01*
X0025400Y0016000D01*
X0017750D01*
X0017500Y0022500D02*
X0018000Y0023000D01*
X0020000D01*
X0020426Y0022574D01*
Y0022024D01*
X0016750Y0017000D02*
X0026500D01*
X0027000Y0016500D01*
Y0015000D01*
X0002512Y0022024D02*
X0001524D01*
X0001000Y0021500D01*
Y0020500D01*
X0002250Y0019250D01*
X0006250D01*
X0007000Y0020000D01*
X0025250D01*
X0027250Y0022000D01*
X0031000D01*
X0029000Y0005000D02*
X0028000D01*
X0027000Y0006000D01*
X0026000D01*
X0032000Y0018000D02*
X0031000D01*
X0027000Y0019250D02*
X0007500D01*
X0006750Y0018500D01*
X0001750D01*
X0020000Y0026000D02*
X0023750D01*
X0003535Y0022024D02*
Y0022535D01*
X0004000Y0023000D01*
X0005000D01*
X0005500Y0022500D01*
Y0020500D01*
X0005000Y0020000D01*
X0003600D01*
X0003000Y0020600D01*
Y0021000D01*
G54D10*
X0024000Y0005000D03*
X0032000Y0011000D03*
G54D11*
X0022000Y0005000D03*
X0030000Y0011000D03*
G54D12*
X0026000Y0015000D03*
X0027000D03*
X0028000D03*
X0029000D03*
X0030000D03*
X0031000D03*
X0032000D03*
X0029000Y0005000D03*
Y0006000D03*
Y0007000D03*
X0026000Y0010000D03*
X0027000Y0011000D03*
X0029000Y0029000D03*
Y0025000D03*
X0020000Y0026000D03*
X0021000Y0027000D03*
X0028000Y0020000D03*
Y0024000D03*
X0013000Y0026000D03*
X0016000D03*
X0013000Y0028000D03*
X0016000D03*
X0022000Y0009000D03*
Y0012000D03*
Y0015000D03*
Y0018000D03*
G54D13*
X0031000Y0026000D03*
X0033000D03*
X0032000Y0025000D03*
X0031000Y0024000D03*
X0033000D03*
X0031000Y0005000D03*
Y0007000D03*
X0032000Y0006000D03*
X0033000Y0005000D03*
Y0007000D03*
X0031000Y0022000D03*
X0033000D03*
X0032000Y0021000D03*
X0031000Y0020000D03*
X0033000D03*
G54D14*
X0002000Y0014000D03*
Y0010063D03*
Y0008095D03*
X0019715Y0014590D03*
Y0010457D03*
Y0006717D03*
Y0002780D03*
X0002000Y0025000D03*
X0003968D03*
G54D15*
X0002000Y0021000D03*
X0002512Y0022024D03*
X0003000Y0021000D03*
X0003535Y0022024D03*
X0003968Y0021000D03*
X0004559Y0022024D03*
X0019914Y0021000D03*
X0020426Y0022024D03*
X0022473D03*
X0022985Y0021000D03*
X0023497Y0022024D03*
X0019402D03*
X0025000Y0015000D03*
X0029000Y0004000D03*
X0025000Y0011000D03*
X0019000Y0027000D03*
G54D16*
X0032000Y0018000D03*
X0031000D03*
X0030000D03*
X0029000D03*
X0028000D03*
X0027000D03*
X0026000D03*
X0025000D03*
X0026000Y0007000D03*
Y0006000D03*
Y0005000D03*
Y0004000D03*
G54D17*
X0002000Y0002000D03*
X0032000D03*
Y0028000D03*
X0002000D03*
G54D19*
X0033000Y0013000D03*
X0022750Y0027500D03*
X0017000Y0029000D03*
X0015750Y0009250D03*
X0017750Y0016000D03*
X0017500Y0022500D03*
X0016750Y0017000D03*
X0027000Y0019250D03*
X0001750Y0018500D03*
X0023750Y0026000D03*
M02*
