*
G04 Mass Parameters ***
*
G04 Image ***
*
%INF:\EIS\PROJECTS\TRANSCONDUCTANCE AMPLIFIER\ORCAD\LAYOUT\EIS_NICU_BOARD-10.SST*%
%ICAS*%
%MOIN*%
%IPPOS*%
%ASAXBY*%
G74*%FSLAN2X34Y34*%
*
G04 Aperture Definitions ***
*
%ADD10C,0.0550*%
%ADD11R,0.0550X0.0550*%
%ADD12C,0.0580*%
%ADD13C,0.1000*%
%ADD14R,0.0970X0.0970*%
%ADD15R,0.0580X0.0580*%
%ADD16C,0.0640*%
%ADD17C,0.1100*%
%ADD18C,0.0300*%
%ADD19C,0.0500*%
%ADD20C,0.0550*%
%ADD21R,0.0550X0.0550*%
%ADD22C,0.0580*%
%ADD23C,0.1000*%
%ADD24R,0.0970X0.0970*%
%ADD25R,0.0580X0.0580*%
%ADD26C,0.0640*%
%ADD27C,0.1100*%
%ADD28C,0.0500*%
%ADD29C,0.0100*%
%ADD30C,0.0120*%
%ADD31C,0.1050*%
%ADD32C,0.0550*%
%ADD33C,0.0080*%
%ADD34C,0.0010*%
%ADD35C,0.0200*%
*
G04 Plot Data ***
*
G54D29*
G01X0006450Y0025208D02*
Y0025042D01*
X0006283Y0024708D01*
X0006117Y0025042D01*
Y0025208D01*
X0005542Y0024792D02*
X0005583Y0024708D01*
X0005833D01*
X0005875Y0024792D01*
Y0024958D01*
X0005792Y0025042D01*
X0005542D01*
Y0025208D01*
X0005875D01*
X0001750Y0003222D02*
X0001394D01*
X0001750Y0003578D01*
Y0003667D01*
X0001705Y0003755D01*
X0001439D01*
X0001394Y0003667D01*
X0001150Y0003222D02*
X0000794D01*
X0001150Y0003578D01*
Y0003667D01*
X0001105Y0003755D01*
X0000839D01*
X0000794Y0003667D01*
X0031661Y0003222D02*
X0031483D01*
X0031572D02*
Y0003755D01*
X0031483Y0003667D01*
X0031150Y0003222D02*
X0030794D01*
X0031150Y0003578D01*
Y0003667D01*
X0031105Y0003755D01*
X0030839D01*
X0030794Y0003667D01*
X0031528Y0029222D02*
X0031439Y0029311D01*
X0031394Y0029400D01*
Y0029578D01*
X0031439Y0029667D01*
X0031528Y0029755D01*
X0031617D01*
X0031705Y0029667D01*
X0031750Y0029578D01*
Y0029400D01*
X0031705Y0029311D01*
X0031617Y0029222D01*
X0031528D01*
X0031150D02*
X0030794D01*
X0031150Y0029578D01*
Y0029667D01*
X0031105Y0029755D01*
X0030839D01*
X0030794Y0029667D01*
X0001616Y0029489D02*
X0001350D01*
X0001305Y0029578D01*
Y0029667D01*
X0001350Y0029755D01*
X0001616D01*
X0001661Y0029667D01*
Y0029578D01*
X0001483Y0029222D01*
X0001061D02*
X0000883D01*
X0000972D02*
Y0029755D01*
X0000883Y0029667D01*
X0002125Y0011208D02*
X0001792D01*
X0001958Y0007125D02*
Y0006792D01*
X0002125Y0006958D02*
X0001792D01*
X0019983Y0007958D02*
Y0008458D01*
X0019942Y0007958D02*
X0020192D01*
X0020275Y0008125D01*
Y0008292D01*
X0020192Y0008458D01*
X0019942D01*
X0019700D02*
Y0007958D01*
X0019617Y0008042D01*
X0019450Y0008375D01*
X0019367Y0008458D01*
Y0007958D01*
X0018958Y0008208D02*
X0019125D01*
Y0008042D01*
X0019083Y0007958D01*
X0018833D01*
X0018792Y0008042D01*
Y0008375D01*
X0018833Y0008458D01*
X0019083D01*
X0019125Y0008375D01*
X0020517Y0004208D02*
Y0004042D01*
X0020350Y0003708D01*
X0020183Y0004042D01*
Y0004208D01*
X0019608Y0003792D02*
X0019650Y0003708D01*
X0019900D01*
X0019942Y0003792D01*
Y0003958D01*
X0019858Y0004042D01*
X0019608D01*
Y0004208D01*
X0019942D01*
X0019367Y0003708D02*
X0019200D01*
X0019283D02*
Y0004208D01*
X0019200Y0004125D01*
X0018708D02*
Y0003792D01*
X0018875Y0003958D02*
X0018542D01*
X0027542Y0029004D02*
Y0028754D01*
X0027625Y0028712D01*
X0027708Y0028754D01*
Y0029004D01*
X0027792Y0029046D01*
X0027875Y0029004D01*
Y0028754D01*
Y0028304D02*
X0027625D01*
X0027875Y0028471D02*
X0027625D01*
X0027542Y0028429D01*
Y0028346D01*
X0027625Y0028304D01*
X0027542Y0028262D01*
Y0028179D01*
X0027625Y0028137D01*
X0027875D01*
Y0027896D02*
X0027625D01*
X0027542Y0027854D01*
Y0027604D01*
X0027875D02*
X0027375D01*
X0027875Y0027071D02*
X0027792Y0027029D01*
X0027458D01*
X0027375Y0027071D01*
Y0027321D01*
X0027458Y0027362D01*
X0027792D01*
X0027875Y0027321D01*
Y0027071D01*
Y0025817D02*
X0027792Y0025733D01*
X0027708Y0025692D01*
X0027542D01*
X0027458Y0025733D01*
X0027375Y0025817D01*
Y0025900D01*
X0027458Y0025983D01*
X0027542Y0026025D01*
X0027708D01*
X0027792Y0025983D01*
X0027875Y0025900D01*
Y0025817D01*
Y0025242D02*
X0027792Y0025158D01*
X0027708Y0025117D01*
X0027542D01*
X0027458Y0025158D01*
X0027375Y0025242D01*
Y0025325D01*
X0027458Y0025408D01*
X0027542Y0025450D01*
X0027708D01*
X0027792Y0025408D01*
X0027875Y0025325D01*
Y0025242D01*
Y0024875D02*
Y0024708D01*
Y0024792D02*
X0027375D01*
X0027458Y0024708D01*
X0028975Y0009625D02*
X0028892D01*
X0029142Y0009458D02*
X0028975Y0009625D01*
X0029142Y0009792D01*
X0028892Y0009458D02*
Y0009958D01*
X0028608Y0009458D02*
X0028442D01*
X0028525D02*
Y0009958D01*
X0028442Y0009875D01*
X0027312Y0009792D02*
X0027062D01*
X0027354Y0009458D02*
X0027187D01*
X0027146Y0009542D01*
Y0009958D01*
X0026571Y0009792D02*
X0026737D01*
X0026779Y0009708D01*
Y0009542D01*
X0026821Y0009458D01*
X0026529D01*
X0026487Y0009542D01*
X0026529Y0009625D01*
X0026779D01*
X0025442Y0009792D02*
X0025192D01*
X0025483Y0009458D02*
X0025317D01*
X0025275Y0009542D01*
Y0009958D01*
X0024908Y0009458D02*
X0024658D01*
X0024617Y0009542D01*
Y0009708D01*
X0024658Y0009792D01*
X0024908D01*
X0024950Y0009708D01*
Y0009625D01*
X0024617D01*
X0024333Y0009792D02*
X0024083D01*
X0024042Y0009708D01*
X0024083Y0009625D01*
X0024333D01*
X0024375Y0009542D01*
X0024333Y0009458D01*
X0024083D01*
X0027617Y0012542D02*
X0027367D01*
X0027325Y0012458D01*
X0027367Y0012375D01*
X0027617D01*
X0027658Y0012292D01*
X0027617Y0012208D01*
X0027367D01*
X0026917D02*
Y0012458D01*
X0027083Y0012208D02*
Y0012458D01*
X0027042Y0012542D01*
X0026958D01*
X0026917Y0012458D01*
X0026875Y0012542D01*
X0026792D01*
X0026750Y0012458D01*
Y0012208D01*
X0026508D02*
Y0012458D01*
X0026467Y0012542D01*
X0026217D01*
Y0012208D02*
Y0012708D01*
X0025683Y0012208D02*
X0025642Y0012292D01*
Y0012625D01*
X0025683Y0012708D01*
X0025933D01*
X0025975Y0012625D01*
Y0012292D01*
X0025933Y0012208D01*
X0025683D01*
X0025233Y0012375D02*
X0025150D01*
X0025400Y0012208D02*
X0025233Y0012375D01*
X0025400Y0012542D01*
X0025150Y0012208D02*
Y0012708D01*
X0024658Y0012208D02*
X0024575Y0012292D01*
X0024533Y0012375D01*
Y0012542D01*
X0024575Y0012625D01*
X0024658Y0012708D01*
X0024742D01*
X0024825Y0012625D01*
X0024867Y0012542D01*
Y0012375D01*
X0024825Y0012292D01*
X0024742Y0012208D01*
X0024658D01*
X0024292D02*
X0024125D01*
X0024208D02*
Y0012708D01*
X0024125Y0012625D01*
X0024133Y0024375D02*
X0024050D01*
X0024300Y0024208D02*
X0024133Y0024375D01*
X0024300Y0024542D01*
X0024050Y0024208D02*
Y0024708D01*
X0023767Y0024375D02*
X0023433D01*
X0023600Y0024708D01*
X0023683D01*
Y0024208D01*
X0022858Y0024292D02*
X0022900Y0024208D01*
X0023150D01*
X0023192Y0024292D01*
Y0024458D01*
X0023108Y0024542D01*
X0022858D01*
Y0024708D01*
X0023192D01*
X0021812Y0024542D02*
X0021562D01*
X0021854Y0024208D02*
X0021687D01*
X0021646Y0024292D01*
Y0024708D01*
X0021071Y0024542D02*
X0021237D01*
X0021279Y0024458D01*
Y0024292D01*
X0021321Y0024208D01*
X0021029D01*
X0020987Y0024292D01*
X0021029Y0024375D01*
X0021279D01*
X0019942Y0024542D02*
X0019692D01*
X0019983Y0024208D02*
X0019817D01*
X0019775Y0024292D01*
Y0024708D01*
X0019408Y0024208D02*
X0019158D01*
X0019117Y0024292D01*
Y0024458D01*
X0019158Y0024542D01*
X0019408D01*
X0019450Y0024458D01*
Y0024375D01*
X0019117D01*
X0018833Y0024542D02*
X0018583D01*
X0018542Y0024458D01*
X0018583Y0024375D01*
X0018833D01*
X0018875Y0024292D01*
X0018833Y0024208D01*
X0018583D01*
X0022442Y0028542D02*
X0022192D01*
X0022150Y0028458D01*
X0022192Y0028375D01*
X0022442D01*
X0022483Y0028292D01*
X0022442Y0028208D01*
X0022192D01*
X0021742D02*
Y0028458D01*
X0021908Y0028208D02*
Y0028458D01*
X0021867Y0028542D01*
X0021783D01*
X0021742Y0028458D01*
X0021700Y0028542D01*
X0021617D01*
X0021575Y0028458D01*
Y0028208D01*
X0021333D02*
Y0028458D01*
X0021292Y0028542D01*
X0021042D01*
Y0028208D02*
Y0028708D01*
X0020508Y0028208D02*
X0020467Y0028292D01*
Y0028625D01*
X0020508Y0028708D01*
X0020758D01*
X0020800Y0028625D01*
Y0028292D01*
X0020758Y0028208D01*
X0020508D01*
X0020058Y0028375D02*
X0019975D01*
X0020225Y0028208D02*
X0020058Y0028375D01*
X0020225Y0028542D01*
X0019975Y0028208D02*
Y0028708D01*
X0019483Y0028208D02*
X0019400Y0028292D01*
X0019358Y0028375D01*
Y0028542D01*
X0019400Y0028625D01*
X0019483Y0028708D01*
X0019567D01*
X0019650Y0028625D01*
X0019692Y0028542D01*
Y0028375D01*
X0019650Y0028292D01*
X0019567Y0028208D01*
X0019483D01*
X0018908D02*
X0018825Y0028292D01*
X0018783Y0028375D01*
Y0028542D01*
X0018825Y0028625D01*
X0018908Y0028708D01*
X0018992D01*
X0019075Y0028625D01*
X0019117Y0028542D01*
Y0028375D01*
X0019075Y0028292D01*
X0018992Y0028208D01*
X0018908D01*
X0018542D02*
X0018375D01*
X0018458D02*
Y0028708D01*
X0018375Y0028625D01*
X0026708Y0023292D02*
Y0023042D01*
X0026792Y0023000D01*
X0026875Y0023042D01*
Y0023292D01*
X0026958Y0023333D01*
X0027042Y0023292D01*
Y0023042D01*
Y0022592D02*
X0026792D01*
X0027042Y0022758D02*
X0026792D01*
X0026708Y0022717D01*
Y0022633D01*
X0026792Y0022592D01*
X0026708Y0022550D01*
Y0022467D01*
X0026792Y0022425D01*
X0027042D01*
Y0022183D02*
X0026792D01*
X0026708Y0022142D01*
Y0021892D01*
X0027042D02*
X0026542D01*
X0027042Y0021358D02*
X0026958Y0021317D01*
X0026625D01*
X0026542Y0021358D01*
Y0021608D01*
X0026625Y0021650D01*
X0026958D01*
X0027042Y0021608D01*
Y0021358D01*
X0026875Y0020908D02*
Y0020825D01*
X0027042Y0021075D02*
X0026875Y0020908D01*
X0026708Y0021075D01*
X0027042Y0020825D02*
X0026542D01*
X0027042Y0020542D02*
Y0020208D01*
X0026708Y0020542D01*
X0026625D01*
X0026542Y0020500D01*
Y0020250D01*
X0026625Y0020208D01*
X0015417Y0026958D02*
X0015167D01*
Y0026708D02*
Y0027208D01*
X0015500D01*
X0014883Y0027042D02*
Y0026708D01*
X0014925D02*
X0014633D01*
X0014592Y0026792D01*
Y0027042D01*
X0014350Y0026708D02*
X0014183D01*
X0014267D02*
Y0027208D01*
X0014183Y0027125D01*
X0013650Y0026708D02*
X0013567Y0026792D01*
X0013525Y0026875D01*
Y0027042D01*
X0013567Y0027125D01*
X0013650Y0027208D01*
X0013733D01*
X0013817Y0027125D01*
X0013858Y0027042D01*
Y0026875D01*
X0013817Y0026792D01*
X0013733Y0026708D01*
X0013650D01*
X0013200D02*
X0013283D01*
Y0026792D01*
X0013200D01*
Y0026708D01*
X0012667D02*
X0012583Y0026792D01*
X0012542Y0026875D01*
Y0027042D01*
X0012583Y0027125D01*
X0012667Y0027208D01*
X0012750D01*
X0012833Y0027125D01*
X0012875Y0027042D01*
Y0026875D01*
X0012833Y0026792D01*
X0012750Y0026708D01*
X0012667D01*
X0028875Y0004292D02*
X0028917Y0004208D01*
X0029167D01*
X0029208Y0004292D01*
Y0004458D01*
X0029125Y0004542D01*
X0028875D01*
Y0004708D01*
X0029208D01*
X0028633Y0004208D02*
X0028467D01*
X0028550D02*
Y0004708D01*
X0028467Y0004625D01*
X0028142Y0004208D02*
X0027975D01*
X0028058D02*
Y0004708D01*
X0027975Y0004625D01*
X0027650Y0004208D02*
X0027483D01*
X0027567D02*
Y0004708D01*
X0027483Y0004625D01*
X0026992Y0004208D02*
Y0004708D01*
X0027158D02*
X0026825D01*
X0026583Y0004208D02*
X0026292D01*
Y0004708D01*
X0013508Y0021292D02*
X0013550Y0021208D01*
X0013800D01*
X0013842Y0021292D01*
Y0021458D01*
X0013758Y0021542D01*
X0013508D01*
Y0021708D01*
X0013842D01*
X0013267Y0021208D02*
X0013100D01*
X0013183D02*
Y0021708D01*
X0013100Y0021625D01*
X0012775Y0021208D02*
X0012442D01*
X0012775Y0021542D01*
Y0021625D01*
X0012733Y0021708D01*
X0012483D01*
X0012442Y0021625D01*
X0011908Y0021208D02*
Y0021708D01*
X0011867Y0021208D02*
X0012117D01*
X0012200Y0021375D01*
Y0021542D01*
X0012117Y0021708D01*
X0011867D01*
X0011625Y0021375D02*
X0011292D01*
X0011625Y0021208D02*
Y0021458D01*
X0011500Y0021708D01*
X0011417D01*
X0011292Y0021458D01*
Y0021208D01*
X0029425Y0017375D02*
X0029092D01*
X0029258Y0017708D01*
X0029342D01*
Y0017208D01*
X0028850D02*
X0028517D01*
X0028850Y0017542D01*
Y0017625D01*
X0028808Y0017708D01*
X0028558D01*
X0028517Y0017625D01*
X0027983Y0017458D02*
X0028233D01*
X0028275Y0017375D01*
Y0017292D01*
X0028233Y0017208D01*
X0027983D01*
X0027942Y0017292D01*
Y0017375D01*
X0028108Y0017708D01*
X0027408Y0017208D02*
Y0017708D01*
X0027367Y0017208D02*
X0027617D01*
X0027700Y0017375D01*
Y0017542D01*
X0027617Y0017708D01*
X0027367D01*
X0027125Y0017375D02*
X0026792D01*
X0027125Y0017208D02*
Y0017458D01*
X0027000Y0017708D01*
X0026917D01*
X0026792Y0017458D01*
Y0017208D01*
X0021042Y0011667D02*
Y0011417D01*
X0021292D02*
X0020792D01*
Y0011750D01*
X0020958Y0011133D02*
X0021292D01*
Y0011175D02*
Y0010883D01*
X0021208Y0010842D01*
X0020958D01*
X0021292Y0010600D02*
Y0010433D01*
Y0010517D02*
X0020792D01*
X0020875Y0010433D01*
X0021292Y0009900D02*
X0021208Y0009817D01*
X0021125Y0009775D01*
X0020958D01*
X0020875Y0009817D01*
X0020792Y0009900D01*
Y0009983D01*
X0020875Y0010067D01*
X0020958Y0010108D01*
X0021125D01*
X0021208Y0010067D01*
X0021292Y0009983D01*
Y0009900D01*
Y0009450D02*
Y0009533D01*
X0021208D01*
Y0009450D01*
X0021292D01*
Y0008917D02*
X0021208Y0008833D01*
X0021125Y0008792D01*
X0020958D01*
X0020875Y0008833D01*
X0020792Y0008917D01*
Y0009000D01*
X0020875Y0009083D01*
X0020958Y0009125D01*
X0021125D01*
X0021208Y0009083D01*
X0021292Y0009000D01*
Y0008917D01*
X0031358Y0009708D02*
X0031108D01*
Y0009458D02*
Y0009958D01*
X0031442D01*
X0030825Y0009792D02*
Y0009458D01*
X0030867D02*
X0030575D01*
X0030533Y0009542D01*
Y0009792D01*
X0030292Y0009458D02*
X0030125D01*
X0030208D02*
Y0009958D01*
X0030125Y0009875D01*
X0030042Y0026750D02*
X0029542D01*
Y0026917D02*
Y0026583D01*
Y0026342D02*
X0029958D01*
X0030042Y0026300D01*
Y0026050D01*
X0029958Y0026008D01*
X0029542D01*
X0029792Y0025433D02*
Y0025683D01*
X0029708Y0025767D01*
X0029625D01*
X0029542Y0025683D01*
Y0025433D01*
X0030042D01*
Y0025025D02*
X0029542D01*
Y0025192D02*
Y0024858D01*
Y0024617D02*
X0029958D01*
X0030042Y0024575D01*
Y0024325D01*
X0029958Y0024283D01*
X0029542D01*
X0030042Y0023750D02*
X0029958Y0023708D01*
X0029625D01*
X0029542Y0023750D01*
Y0024000D01*
X0029625Y0024042D01*
X0029958D01*
X0030042Y0024000D01*
Y0023750D01*
X0030292Y0007742D02*
X0030542Y0007867D01*
X0030292Y0007533D02*
Y0007783D01*
X0030208Y0007867D01*
X0030125D01*
X0030042Y0007783D01*
Y0007533D01*
X0030542D01*
X0030042Y0007292D02*
X0030208D01*
X0030542Y0007125D01*
X0030208Y0006958D01*
X0030042D01*
X0029625Y0022008D02*
X0029125D01*
Y0022175D02*
Y0021842D01*
Y0021600D02*
X0029542D01*
X0029625Y0021558D01*
Y0021308D01*
X0029542Y0021267D01*
X0029125D01*
X0029375Y0020692D02*
Y0020942D01*
X0029292Y0021025D01*
X0029208D01*
X0029125Y0020942D01*
Y0020692D01*
X0029625D01*
X0029125Y0020450D02*
X0029625D01*
X0029542Y0020367D01*
X0029208Y0020200D01*
X0029125Y0020117D01*
X0029625D01*
Y0019875D02*
Y0019708D01*
Y0019792D02*
X0029125D01*
Y0019875D02*
Y0019708D01*
X0005567Y0026583D02*
X0005317Y0027083D01*
X0005567D02*
X0005317Y0026583D01*
X0004742D02*
X0004700Y0026667D01*
Y0027000D01*
X0004742Y0027083D01*
X0004992D01*
X0005033Y0027000D01*
Y0026667D01*
X0004992Y0026583D01*
X0004742D01*
X0004167D02*
Y0027083D01*
X0004125Y0026583D02*
X0004375D01*
X0004458Y0026667D01*
Y0026750D01*
X0004417Y0026833D01*
X0004167D02*
X0004417D01*
X0004458Y0026917D01*
Y0027000D01*
X0004375Y0027083D01*
X0004125D01*
X0003883Y0026833D02*
X0003550D01*
X0003883Y0026583D02*
Y0027083D01*
X0003550Y0026583D02*
Y0027083D01*
X0003308Y0026667D02*
X0003267Y0026583D01*
X0003017D01*
X0002975Y0026667D01*
Y0027000D01*
X0003017Y0027083D01*
X0003267D01*
X0003308Y0027000D01*
X0002733Y0027083D02*
Y0026583D01*
X0002650Y0026667D01*
X0002483Y0027000D01*
X0002400Y0027083D01*
Y0026583D01*
X0002158Y0027083D02*
Y0026667D01*
X0002117Y0026583D01*
X0001867D01*
X0001825Y0026667D01*
Y0027083D01*
X0001583Y0026583D02*
X0001292D01*
Y0027083D01*
X0005567Y0026333D02*
X0005317Y0026833D01*
X0005567D02*
X0005317Y0026333D01*
X0004742D02*
X0004700Y0026417D01*
Y0026750D01*
X0004742Y0026833D01*
X0004992D01*
X0005033Y0026750D01*
Y0026417D01*
X0004992Y0026333D01*
X0004742D01*
X0004167D02*
Y0026833D01*
X0004125Y0026333D02*
X0004375D01*
X0004458Y0026417D01*
Y0026500D01*
X0004417Y0026583D01*
X0004167D02*
X0004417D01*
X0004458Y0026667D01*
Y0026750D01*
X0004375Y0026833D01*
X0004125D01*
X0003883Y0026583D02*
X0003550D01*
X0003883Y0026333D02*
Y0026833D01*
X0003550Y0026333D02*
Y0026833D01*
X0003308Y0026417D02*
X0003267Y0026333D01*
X0003017D01*
X0002975Y0026417D01*
Y0026750D01*
X0003017Y0026833D01*
X0003267D01*
X0003308Y0026750D01*
X0002733Y0026833D02*
Y0026333D01*
X0002650Y0026417D01*
X0002483Y0026750D01*
X0002400Y0026833D01*
Y0026333D01*
X0002158Y0026833D02*
Y0026417D01*
X0002117Y0026333D01*
X0001867D01*
X0001825Y0026417D01*
Y0026833D01*
X0001583Y0026333D02*
X0001292D01*
Y0026833D01*
X0020267Y0011958D02*
Y0011792D01*
X0020100Y0011458D01*
X0019933Y0011792D01*
Y0011958D01*
X0019358Y0011542D02*
X0019400Y0011458D01*
X0019650D01*
X0019692Y0011542D01*
Y0011708D01*
X0019608Y0011792D01*
X0019358D01*
Y0011958D01*
X0019692D01*
X0019117Y0011458D02*
X0018950D01*
X0019033D02*
Y0011958D01*
X0018950Y0011875D01*
X0018625Y0011708D02*
X0018292D01*
X0015417Y0029208D02*
X0015167D01*
Y0028958D02*
Y0029458D01*
X0015500D01*
X0014883Y0029292D02*
Y0028958D01*
X0014925D02*
X0014633D01*
X0014592Y0029042D01*
Y0029292D01*
X0014350Y0028958D02*
X0014183D01*
X0014267D02*
Y0029458D01*
X0014183Y0029375D01*
X0013650Y0028958D02*
X0013567Y0029042D01*
X0013525Y0029125D01*
Y0029292D01*
X0013567Y0029375D01*
X0013650Y0029458D01*
X0013733D01*
X0013817Y0029375D01*
X0013858Y0029292D01*
Y0029125D01*
X0013817Y0029042D01*
X0013733Y0028958D01*
X0013650D01*
X0013200D02*
X0013283D01*
Y0029042D01*
X0013200D01*
Y0028958D01*
X0012667D02*
X0012583Y0029042D01*
X0012542Y0029125D01*
Y0029292D01*
X0012583Y0029375D01*
X0012667Y0029458D01*
X0012750D01*
X0012833Y0029375D01*
X0012875Y0029292D01*
Y0029125D01*
X0012833Y0029042D01*
X0012750Y0028958D01*
X0012667D01*
X0004208Y0024125D02*
Y0023792D01*
X0004375Y0023958D02*
X0004042D01*
X0021042Y0015917D02*
Y0015667D01*
X0021292D02*
X0020792D01*
Y0016000D01*
X0020958Y0015383D02*
X0021292D01*
Y0015425D02*
Y0015133D01*
X0021208Y0015092D01*
X0020958D01*
X0021292Y0014850D02*
Y0014683D01*
Y0014767D02*
X0020792D01*
X0020875Y0014683D01*
X0021292Y0014150D02*
X0021208Y0014067D01*
X0021125Y0014025D01*
X0020958D01*
X0020875Y0014067D01*
X0020792Y0014150D01*
Y0014233D01*
X0020875Y0014317D01*
X0020958Y0014358D01*
X0021125D01*
X0021208Y0014317D01*
X0021292Y0014233D01*
Y0014150D01*
Y0013700D02*
Y0013783D01*
X0021208D01*
Y0013700D01*
X0021292D01*
Y0013167D02*
X0021208Y0013083D01*
X0021125Y0013042D01*
X0020958D01*
X0020875Y0013083D01*
X0020792Y0013167D01*
Y0013250D01*
X0020875Y0013333D01*
X0020958Y0013375D01*
X0021125D01*
X0021208Y0013333D01*
X0021292Y0013250D01*
Y0013167D01*
X0001117Y0004833D02*
X0000950D01*
X0001033D02*
Y0005333D01*
X0000950Y0005250D01*
X0000625Y0005333D02*
Y0004917D01*
X0000583Y0004833D01*
X0000333D01*
X0000292Y0004917D01*
Y0005333D01*
X0023608Y0004958D02*
X0023358D01*
Y0004708D02*
Y0005208D01*
X0023692D01*
X0023075Y0005042D02*
Y0004708D01*
X0023117D02*
X0022825D01*
X0022783Y0004792D01*
Y0005042D01*
X0022542Y0004708D02*
X0022375D01*
X0022458D02*
Y0005208D01*
X0022375Y0005125D01*
X0002125Y0023958D02*
X0001792D01*
X0004867Y0019667D02*
X0004908Y0019583D01*
X0005158D01*
X0005200Y0019667D01*
Y0019833D01*
X0005117Y0019917D01*
X0004867D01*
Y0020083D01*
X0005200D01*
X0004625D02*
Y0019667D01*
X0004583Y0019583D01*
X0004333D01*
X0004292Y0019667D01*
Y0020083D01*
G54D33*
G01X0020265Y0027233D02*
X0020043D01*
X0020265Y0027455D01*
Y0027510D01*
X0020238Y0027566D01*
X0020071D01*
X0020043Y0027510D01*
X0019772Y0027399D02*
X0019855Y0027233D01*
X0019633Y0027399D02*
X0019800D01*
X0019855Y0027455D01*
Y0027510D01*
X0019800Y0027566D01*
X0019633D01*
Y0027233D01*
X0027717Y0003290D02*
Y0003068D01*
X0027495Y0003290D01*
X0027439D01*
X0027384Y0003263D01*
Y0003096D01*
X0027439Y0003068D01*
X0027384Y0002880D02*
X0027662D01*
X0027717Y0002853D01*
Y0002686D01*
X0027662Y0002658D01*
X0027384D01*
X0022570Y0006849D02*
X0022737D01*
X0022764Y0006794D01*
Y0006738D01*
X0022737Y0006683D01*
X0022570D01*
X0022542Y0006738D01*
Y0006794D01*
X0022653Y0007016D01*
X0022354Y0006738D02*
X0022327Y0006683D01*
X0022160D01*
X0022132Y0006738D01*
Y0006960D01*
X0022160Y0007016D01*
X0022327D01*
X0022354Y0006960D01*
X0022000Y0004382D02*
Y0004116D01*
X0022133Y0004249D02*
X0021867D01*
X0028765Y0011094D02*
X0028543D01*
X0028654Y0011316D01*
X0028710D01*
Y0010983D01*
X0028272Y0011149D02*
X0028355Y0010983D01*
X0028133Y0011149D02*
X0028300D01*
X0028355Y0011205D01*
Y0011260D01*
X0028300Y0011316D01*
X0028133D01*
Y0010983D01*
X0033709Y0010683D02*
X0033598D01*
X0033653D02*
Y0011016D01*
X0033598Y0010960D01*
X0033354Y0010738D02*
X0033327Y0010683D01*
X0033160D01*
X0033132Y0010738D01*
Y0010960D01*
X0033160Y0011016D01*
X0033327D01*
X0033354Y0010960D01*
X0030000Y0010382D02*
Y0010116D01*
X0030133Y0010249D02*
X0029867D01*
X0022137Y0016417D02*
X0022192Y0016445D01*
Y0016612D01*
X0022137Y0016639D01*
X0022026D01*
X0021970Y0016584D01*
Y0016417D01*
X0021859D01*
Y0016639D01*
X0022137Y0016229D02*
X0022192Y0016202D01*
Y0016035D01*
X0022137Y0016007D01*
X0021914D01*
X0021859Y0016035D01*
Y0016202D01*
X0021914Y0016229D01*
X0029317Y0022459D02*
Y0022348D01*
Y0022403D02*
X0028984D01*
X0029039Y0022348D01*
X0029151Y0022021D02*
X0029317Y0022104D01*
X0029151Y0021882D02*
Y0022049D01*
X0029095Y0022104D01*
X0029039D01*
X0028984Y0022049D01*
Y0021882D01*
X0029317D01*
X0014862Y0025974D02*
X0014695D01*
X0014667Y0026030D01*
Y0026085D01*
X0014695Y0026141D01*
X0014862D01*
X0014889Y0026085D01*
Y0026030D01*
X0014778Y0025808D01*
X0014479Y0025863D02*
X0014452Y0025808D01*
X0014285D01*
X0014257Y0025863D01*
Y0026085D01*
X0014285Y0026141D01*
X0014452D01*
X0014479Y0026085D01*
X0030988Y0028708D02*
X0030933Y0028652D01*
Y0028541D01*
X0030988Y0028485D01*
X0031044D01*
X0031155Y0028597D01*
X0031266Y0028485D01*
Y0028708D01*
X0031099Y0028979D02*
X0030933Y0028895D01*
X0031099Y0029118D02*
Y0028951D01*
X0031155Y0028895D01*
X0031210D01*
X0031266Y0028951D01*
Y0029118D01*
X0030933D01*
X0021942Y0010723D02*
X0021609Y0010889D01*
Y0010667D01*
X0021887Y0010479D02*
X0021942Y0010452D01*
Y0010285D01*
X0021887Y0010257D01*
X0021664D01*
X0021609Y0010285D01*
Y0010452D01*
X0021664Y0010479D01*
X0033888Y0016738D02*
X0033944Y0016683D01*
X0034055D01*
X0034110Y0016738D01*
Y0016794D01*
X0033999Y0016905D01*
X0034110Y0017016D01*
X0033888D01*
X0033700D02*
Y0016738D01*
X0033673Y0016683D01*
X0033506D01*
X0033478Y0016738D01*
Y0017016D01*
X0014862Y0027974D02*
X0014889Y0028030D01*
Y0028085D01*
X0014862Y0028141D01*
X0014695D01*
X0014667Y0028085D01*
Y0028030D01*
X0014695Y0027974D01*
X0014862D01*
X0014889Y0027919D01*
Y0027863D01*
X0014862Y0027808D01*
X0014695D01*
X0014667Y0027863D01*
Y0027919D01*
X0014695Y0027974D01*
X0014479Y0027863D02*
X0014452Y0027808D01*
X0014285D01*
X0014257Y0027863D01*
Y0028085D01*
X0014285Y0028141D01*
X0014452D01*
X0014479Y0028085D01*
X0021750Y0025000D02*
Y0025125D01*
X0018250D01*
Y0025000D01*
X0018000D01*
Y0029000D01*
X0022000D01*
Y0025000D01*
X0021750D01*
X0027750Y0009000D02*
Y0009125D01*
X0024250D01*
Y0009000D01*
X0024000D01*
Y0013000D01*
X0028000D01*
Y0009000D01*
X0027750D01*
X0022000Y0015750D02*
Y0015500D01*
X0022500Y0017250D02*
Y0015750D01*
X0021500D01*
Y0017250D01*
X0022500D01*
X0022000D02*
Y0017500D01*
X0027500Y0023125D02*
X0028500D01*
Y0020875D01*
X0027500D01*
Y0023125D01*
X0028000Y0020875D02*
Y0020500D01*
Y0023500D02*
Y0023125D01*
X0013750Y0026000D02*
X0013500D01*
X0015250Y0025500D02*
X0013750D01*
Y0026500D01*
X0015250D01*
Y0025500D01*
Y0026000D02*
X0015500D01*
X0029500Y0025875D02*
X0028500D01*
Y0028125D01*
X0029500D01*
Y0025875D01*
X0029000Y0028125D02*
Y0028500D01*
Y0025500D02*
Y0025875D01*
X0022000Y0009750D02*
Y0009500D01*
X0022500Y0011250D02*
Y0009750D01*
X0021500D01*
Y0011250D01*
X0022500D01*
X0022000D02*
Y0011500D01*
X0024000Y0016000D02*
Y0017000D01*
Y0017500D01*
X0033000D01*
Y0015500D01*
X0024000D01*
Y0016000D01*
X0024250D01*
Y0017000D01*
X0024000D01*
X0013750Y0028000D02*
X0013500D01*
X0015250Y0027500D02*
X0013750D01*
Y0028500D01*
X0015250D01*
Y0027500D01*
Y0028000D02*
X0015500D01*
G01X0021500Y0005000D02*
G03X0023000Y0003500I0001500J0000000D01*
G03X0024500Y0005000I0000000J0001500D01*
G03X0023000Y0006500I0001500J0000000D01*
G03X0021500Y0005000I0000000J0001500D01*
G01X0029500Y0011000D02*
G03X0031000Y0009500I0001500J0000000D01*
G03X0032500Y0011000I0000000J0001500D01*
G03X0031000Y0012500I0001500J0000000D01*
G03X0029500Y0011000I0000000J0001500D01*
G54D34*
G01X0030169Y0027770D02*
X0030339Y0027939D01*
Y0028278D01*
X0030169Y0028448D01*
X0030000D01*
X0029661Y0028109D01*
X0029322Y0028448D01*
Y0027770D01*
X0030000Y0027072D02*
X0030169D01*
X0030339Y0027157D01*
Y0027496D01*
X0030169Y0027580D01*
X0029322D01*
Y0027665D02*
Y0027326D01*
X0031052Y0004089D02*
X0031730D01*
X0031052Y0003411D01*
Y0003242D01*
X0031137Y0003072D01*
X0031645D01*
X0031730Y0003242D01*
X0032428Y0003750D02*
Y0003919D01*
X0032343Y0004089D01*
X0032004D01*
X0031919Y0003919D01*
Y0003072D01*
X0031835D02*
X0032174D01*
X0028839Y0021278D02*
Y0020939D01*
Y0021109D02*
X0027822D01*
X0027992Y0020939D01*
X0028500Y0020072D02*
X0028669D01*
X0028839Y0020157D01*
Y0020496D01*
X0028669Y0020580D01*
X0027822D01*
Y0020665D02*
Y0020326D01*
G54D35*
G01X0013594Y0011639D02*
X0013650Y0011528D01*
X0013983D01*
X0014039Y0011639D01*
Y0011861D01*
X0013928Y0011972D01*
X0013594D01*
Y0012194D01*
X0014039D01*
X0013139D02*
Y0011639D01*
X0013083Y0011528D01*
X0012750D01*
X0012694Y0011639D01*
Y0012194D01*
X0012239Y0011528D02*
X0011794D01*
X0012239Y0011972D01*
Y0012083D01*
X0012183Y0012194D01*
X0011850D01*
X0011794Y0012083D01*
X0011339Y0011528D02*
X0011117D01*
X0011228D02*
Y0012194D01*
X0011117Y0012083D01*
X0010105Y0011861D02*
X0010439D01*
X0010550Y0011972D01*
Y0012083D01*
X0010439Y0012194D01*
X0010105D01*
Y0011528D01*
X0009428Y0011861D02*
X0009650D01*
Y0011639D01*
X0009594Y0011528D01*
X0009261D01*
X0009205Y0011639D01*
Y0012083D01*
X0009261Y0012194D01*
X0009594D01*
X0009650Y0012083D01*
X0008361Y0011528D02*
Y0012194D01*
X0008305Y0011528D02*
X0008639D01*
X0008750Y0011750D01*
Y0011972D01*
X0008639Y0012194D01*
X0008305D01*
M02*
