*
G04 Mass Parameters ***
*
G04 Image ***
*
%INF:\EIS\PROJECTS\TRANSCONDUCTANCE AMPLIFIER\ORCAD\LAYOUT\EIS_NICU_BOARD-5.SST*%
%ICAS*%
%MOIN*%
%IPPOS*%
%ASAXBY*%
G74*%FSLAN2X34Y34*%
*
G04 Aperture Definitions ***
*
%ADD10C,0.0550*%
%ADD11R,0.0550X0.0550*%
%ADD12C,0.0520*%
%ADD13C,0.0670*%
%ADD14R,0.0800X0.0800*%
%ADD15R,0.0520X0.0520*%
%ADD16C,0.0580*%
%ADD17R,0.0580X0.0580*%
%ADD18R,0.0590X0.0590*%
%ADD19C,0.1100*%
%ADD20C,0.0500*%
%ADD21C,0.0210*%
%ADD22C,0.0500*%
%ADD23C,0.0550*%
%ADD24R,0.0550X0.0550*%
%ADD25C,0.0520*%
%ADD26C,0.0670*%
%ADD27R,0.0800X0.0800*%
%ADD28R,0.0520X0.0520*%
%ADD29C,0.0580*%
%ADD30R,0.0580X0.0580*%
%ADD31R,0.0590X0.0590*%
%ADD32C,0.1000*%
%ADD33C,0.0100*%
%ADD34C,0.0750*%
%ADD35R,0.0750X0.0750*%
%ADD36C,0.0720*%
%ADD37R,0.0720X0.0720*%
%ADD38C,0.0780*%
%ADD39R,0.0780X0.0780*%
%ADD40C,0.1400*%
%ADD41C,0.0500*%
%ADD42C,0.0750*%
%ADD43C,0.0700*%
%ADD44R,0.1200X0.1200*%
%ADD45R,0.0689X0.0689*%
%ADD46C,0.1050*%
%ADD47C,0.0550*%
%ADD48C,0.0080*%
%ADD49C,0.0010*%
*
G04 Plot Data ***
*
G54D33*
G01X0001616Y0023489D02*
X0001350D01*
X0001305Y0023578D01*
Y0023667D01*
X0001350Y0023755D01*
X0001616D01*
X0001661Y0023667D01*
Y0023578D01*
X0001483Y0023222D01*
X0001061D02*
X0000883D01*
X0000972D02*
Y0023755D01*
X0000883Y0023667D01*
X0032083Y0020708D02*
Y0021208D01*
X0032250D02*
X0031917D01*
X0031675D02*
Y0020792D01*
X0031633Y0020708D01*
X0031383D01*
X0031342Y0020792D01*
Y0021208D01*
X0030767Y0020958D02*
X0031017D01*
X0031100Y0021042D01*
Y0021125D01*
X0031017Y0021208D01*
X0030767D01*
Y0020708D01*
X0030358D02*
Y0021208D01*
X0030525D02*
X0030192D01*
X0029950D02*
Y0020792D01*
X0029908Y0020708D01*
X0029658D01*
X0029617Y0020792D01*
Y0021208D01*
X0029083Y0020708D02*
X0029042Y0020792D01*
Y0021125D01*
X0029083Y0021208D01*
X0029333D01*
X0029375Y0021125D01*
Y0020792D01*
X0029333Y0020708D01*
X0029083D01*
X0029825Y0017958D02*
X0029950Y0017708D01*
X0029617Y0017958D02*
X0029867D01*
X0029950Y0018042D01*
Y0018125D01*
X0029867Y0018208D01*
X0029617D01*
Y0017708D01*
X0029375Y0018208D02*
Y0018042D01*
X0029208Y0017708D01*
X0029042Y0018042D01*
Y0018208D01*
X0033175Y0007208D02*
Y0007708D01*
X0033342D02*
X0033008D01*
X0032767D02*
Y0007292D01*
X0032725Y0007208D01*
X0032475D01*
X0032433Y0007292D01*
Y0007708D01*
X0031858Y0007458D02*
X0032108D01*
X0032192Y0007542D01*
Y0007625D01*
X0032108Y0007708D01*
X0031858D01*
Y0007208D01*
X0031617Y0007708D02*
Y0007208D01*
X0031533Y0007292D01*
X0031367Y0007625D01*
X0031283Y0007708D01*
Y0007208D01*
X0031042D02*
X0030875D01*
X0030958D02*
Y0007708D01*
X0031042D02*
X0030875D01*
X0001661Y0002222D02*
X0001483D01*
X0001572D02*
Y0002755D01*
X0001483Y0002667D01*
X0001150Y0002222D02*
X0000794D01*
X0001150Y0002578D01*
Y0002667D01*
X0001105Y0002755D01*
X0000839D01*
X0000794Y0002667D01*
X0001117Y0004833D02*
X0000950D01*
X0001033D02*
Y0005333D01*
X0000950Y0005250D01*
X0000625Y0005333D02*
Y0004917D01*
X0000583Y0004833D01*
X0000333D01*
X0000292Y0004917D01*
Y0005333D01*
X0005333Y0020287D02*
X0005167D01*
X0004833Y0020454D01*
X0005167Y0020621D01*
X0005333D01*
X0004917Y0021958D02*
X0004833Y0021917D01*
Y0021667D01*
X0004917Y0021625D01*
X0005083D01*
X0005167Y0021708D01*
Y0021958D01*
X0005333D01*
Y0021625D01*
X0001867Y0019167D02*
X0001908Y0019083D01*
X0002158D01*
X0002200Y0019167D01*
Y0019333D01*
X0002117Y0019417D01*
X0001867D01*
Y0019583D01*
X0002200D01*
X0001625D02*
Y0019167D01*
X0001583Y0019083D01*
X0001333D01*
X0001292Y0019167D01*
Y0019583D01*
G54D48*
G01X0019765Y0019733D02*
X0019543D01*
X0019765Y0019955D01*
Y0020010D01*
X0019738Y0020066D01*
X0019571D01*
X0019543Y0020010D01*
X0019272Y0019899D02*
X0019355Y0019733D01*
X0019133Y0019899D02*
X0019300D01*
X0019355Y0019955D01*
Y0020010D01*
X0019300Y0020066D01*
X0019133D01*
Y0019733D01*
X0025290Y0004283D02*
X0025068D01*
X0025290Y0004505D01*
Y0004560D01*
X0025263Y0004616D01*
X0025096D01*
X0025068Y0004560D01*
X0024880Y0004616D02*
Y0004338D01*
X0024853Y0004283D01*
X0024686D01*
X0024658Y0004338D01*
Y0004616D01*
X0022570Y0006849D02*
X0022737D01*
X0022764Y0006794D01*
Y0006738D01*
X0022737Y0006683D01*
X0022570D01*
X0022542Y0006738D01*
Y0006794D01*
X0022653Y0007016D01*
X0022354Y0006738D02*
X0022327Y0006683D01*
X0022160D01*
X0022132Y0006738D01*
Y0006960D01*
X0022160Y0007016D01*
X0022327D01*
X0022354Y0006960D01*
X0022000Y0004382D02*
Y0004116D01*
X0022133Y0004249D02*
X0021867D01*
X0024765Y0012344D02*
X0024543D01*
X0024654Y0012566D01*
X0024710D01*
Y0012233D01*
X0024272Y0012399D02*
X0024355Y0012233D01*
X0024133Y0012399D02*
X0024300D01*
X0024355Y0012455D01*
Y0012510D01*
X0024300Y0012566D01*
X0024133D01*
Y0012233D01*
X0032709Y0009683D02*
X0032598D01*
X0032653D02*
Y0010016D01*
X0032598Y0009960D01*
X0032354Y0009738D02*
X0032327Y0009683D01*
X0032160D01*
X0032132Y0009738D01*
Y0009960D01*
X0032160Y0010016D01*
X0032327D01*
X0032354Y0009960D01*
X0029000Y0009382D02*
Y0009116D01*
X0029133Y0009249D02*
X0028867D01*
X0021137Y0014417D02*
X0021192Y0014445D01*
Y0014612D01*
X0021137Y0014639D01*
X0021026D01*
X0020970Y0014584D01*
Y0014417D01*
X0020859D01*
Y0014639D01*
X0021137Y0014229D02*
X0021192Y0014202D01*
Y0014035D01*
X0021137Y0014007D01*
X0020914D01*
X0020859Y0014035D01*
Y0014202D01*
X0020914Y0014229D01*
X0008459Y0022683D02*
X0008348D01*
X0008403D02*
Y0023016D01*
X0008348Y0022960D01*
X0008021Y0022849D02*
X0008104Y0022683D01*
X0007882Y0022849D02*
X0008049D01*
X0008104Y0022905D01*
Y0022960D01*
X0008049Y0023016D01*
X0007882D01*
Y0022683D01*
X0014612Y0020974D02*
X0014445D01*
X0014417Y0021030D01*
Y0021085D01*
X0014445Y0021141D01*
X0014612D01*
X0014639Y0021085D01*
Y0021030D01*
X0014528Y0020808D01*
X0014229Y0020863D02*
X0014202Y0020808D01*
X0014035D01*
X0014007Y0020863D01*
Y0021085D01*
X0014035Y0021141D01*
X0014202D01*
X0014229Y0021085D01*
X0008042Y0020738D02*
X0008098Y0020683D01*
X0008209D01*
X0008264Y0020738D01*
Y0020794D01*
X0008153Y0020905D01*
X0008264Y0021016D01*
X0008042D01*
X0007771Y0020849D02*
X0007854Y0020683D01*
X0007632Y0020849D02*
X0007799D01*
X0007854Y0020905D01*
Y0020960D01*
X0007799Y0021016D01*
X0007632D01*
Y0020683D01*
X0021192Y0010723D02*
X0020859Y0010889D01*
Y0010667D01*
X0021137Y0010479D02*
X0021192Y0010452D01*
Y0010285D01*
X0021137Y0010257D01*
X0020914D01*
X0020859Y0010285D01*
Y0010452D01*
X0020914Y0010479D01*
X0032888Y0014738D02*
X0032944Y0014683D01*
X0033055D01*
X0033110Y0014738D01*
Y0014794D01*
X0032999Y0014905D01*
X0033110Y0015016D01*
X0032888D01*
X0032700D02*
Y0014738D01*
X0032673Y0014683D01*
X0032506D01*
X0032478Y0014738D01*
Y0015016D01*
X0014612Y0022974D02*
X0014639Y0023030D01*
Y0023085D01*
X0014612Y0023141D01*
X0014445D01*
X0014417Y0023085D01*
Y0023030D01*
X0014445Y0022974D01*
X0014612D01*
X0014639Y0022919D01*
Y0022863D01*
X0014612Y0022808D01*
X0014445D01*
X0014417Y0022863D01*
Y0022919D01*
X0014445Y0022974D01*
X0014229Y0022863D02*
X0014202Y0022808D01*
X0014035D01*
X0014007Y0022863D01*
Y0023085D01*
X0014035Y0023141D01*
X0014202D01*
X0014229Y0023085D01*
X0026750Y0008000D02*
Y0008125D01*
X0023250D01*
Y0008000D01*
X0023000D01*
Y0012000D01*
X0027000D01*
Y0008000D01*
X0026750D01*
X0022000Y0013750D02*
Y0013500D01*
X0022500Y0015250D02*
Y0013750D01*
X0021500D01*
Y0015250D01*
X0022500D01*
X0022000D02*
Y0015500D01*
X0009125Y0022500D02*
Y0021500D01*
X0006875D01*
Y0022500D01*
X0009125D01*
X0006875Y0022000D02*
X0006500D01*
X0009500D02*
X0009125D01*
X0013750Y0020000D02*
X0013500D01*
X0015250Y0019500D02*
X0013750D01*
Y0020500D01*
X0015250D01*
Y0019500D01*
Y0020000D02*
X0015500D01*
X0009125Y0020500D02*
Y0019500D01*
X0006875D01*
Y0020500D01*
X0009125D01*
X0006875Y0020000D02*
X0006500D01*
X0009500D02*
X0009125D01*
X0022000Y0009750D02*
Y0009500D01*
X0022500Y0011250D02*
Y0009750D01*
X0021500D01*
Y0011250D01*
X0022500D01*
X0022000D02*
Y0011500D01*
X0023000Y0014000D02*
Y0015000D01*
Y0015500D01*
X0032000D01*
Y0013500D01*
X0023000D01*
Y0014000D01*
X0023250D01*
Y0015000D01*
X0023000D01*
X0013750Y0022000D02*
X0013500D01*
X0015250Y0021500D02*
X0013750D01*
Y0022500D01*
X0015250D01*
Y0021500D01*
Y0022000D02*
X0015500D01*
X0023750Y0019000D02*
Y0019125D01*
X0020250D01*
Y0019000D01*
X0020000D01*
Y0023000D01*
X0024000D01*
Y0019000D01*
X0023750D01*
X0025500Y0005500D02*
X0029500D01*
Y0003500D01*
X0025500D01*
Y0005500D01*
Y0005000D02*
X0025750D01*
Y0004000D01*
X0025500D01*
G01X0021500Y0005000D02*
G03X0023000Y0003500I0001500J0000000D01*
G03X0024500Y0005000I0000000J0001500D01*
G03X0023000Y0006500I0001500J0000000D01*
G03X0021500Y0005000I0000000J0001500D01*
G01X0028500Y0010000D02*
G03X0030000Y0008500I0001500J0000000D01*
G03X0031500Y0010000I0000000J0001500D01*
G03X0030000Y0011500I0001500J0000000D01*
G03X0028500Y0010000I0000000J0001500D01*
G54D49*
G01X0027169Y0021020D02*
X0027339Y0021189D01*
Y0021528D01*
X0027169Y0021698D01*
X0027000D01*
X0026661Y0021359D01*
X0026322Y0021698D01*
Y0021020D01*
X0027000Y0020322D02*
X0027169D01*
X0027339Y0020407D01*
Y0020746D01*
X0027169Y0020830D01*
X0026322D01*
Y0020915D02*
Y0020576D01*
X0027339Y0018698D02*
Y0018020D01*
X0026661Y0018698D01*
X0026492D01*
X0026322Y0018613D01*
Y0018104D01*
X0026492Y0018020D01*
X0027000Y0017322D02*
X0027169D01*
X0027339Y0017407D01*
Y0017746D01*
X0027169Y0017830D01*
X0026322D01*
Y0017915D02*
Y0017576D01*
X0032339Y0005528D02*
Y0005189D01*
Y0005359D02*
X0031322D01*
X0031492Y0005189D01*
X0032000Y0004322D02*
X0032169D01*
X0032339Y0004407D01*
Y0004746D01*
X0032169Y0004830D01*
X0031322D01*
Y0004915D02*
Y0004576D01*
M02*
