*
G04 Mass Parameters ***
*
G04 Image ***
*
%INF:\EIS\PROJECTS\TRANSCONDUCTANCE AMPLIFIER\ORCAD\LAYOUT\EIS_NICU_BOARD-5.TOP*%
%ICAS*%
%MOIN*%
%IPPOS*%
%ASAXBY*%
G74*%FSLAN2X34Y34*%
*
G04 Aperture Definitions ***
*
%ADD10C,0.0550*%
%ADD11R,0.0550X0.0550*%
%ADD12C,0.0520*%
%ADD13C,0.0670*%
%ADD14R,0.0800X0.0800*%
%ADD15R,0.0520X0.0520*%
%ADD16C,0.0580*%
%ADD17R,0.0580X0.0580*%
%ADD18R,0.0590X0.0590*%
%ADD19C,0.1100*%
%ADD20C,0.0500*%
%ADD21C,0.0210*%
%ADD22C,0.0500*%
*
G04 Plot Data ***
*
G54D21*
G01X0004000Y0020031D02*
Y0020750D01*
X0004250Y0021000D01*
X0006500D01*
X0007500Y0020000D01*
X0008000D01*
X0007750Y0008000D02*
X0003000D01*
X0002905Y0008095D01*
X0002000D01*
X0024000Y0010000D02*
X0024500D01*
X0025500Y0011000D01*
X0026250D01*
X0027000Y0010250D01*
Y0009500D01*
X0028000Y0008500D01*
X0031250D01*
X0031750Y0009000D01*
X0027000Y0006000D02*
Y0005250D01*
X0026750Y0005000D01*
X0025500D01*
X0024500Y0006000D01*
X0023000D01*
X0022000Y0005000D01*
X0013000Y0022000D02*
X0014000D01*
X0015000Y0021000D01*
X0019250D01*
X0021250Y0019000D01*
X0023497D01*
Y0018024D01*
X0031000Y0010000D02*
X0030500D01*
X0029500Y0009000D01*
X0028500D01*
X0027500Y0010000D01*
Y0011000D01*
X0027000Y0011500D01*
X0023750D01*
X0023250Y0011000D01*
X0021293D01*
X0020750Y0010457D01*
X0019715D01*
X0027000Y0021000D02*
X0025500D01*
X0024500Y0022000D01*
X0016000D01*
X0026000Y0013000D02*
Y0013750D01*
X0025750Y0014000D01*
X0021750D01*
X0020250Y0012500D01*
X0018250D01*
X0031500Y0011250D02*
X0032000Y0011750D01*
Y0014500D01*
X0031500Y0015000D01*
X0021750D01*
X0021250Y0015500D01*
X0019000D01*
X0018500Y0016000D01*
Y0018500D01*
X0019000Y0019000D01*
X0020176D01*
X0020426Y0018750D01*
Y0018024D01*
X0031000Y0016000D02*
X0030000D01*
X0002000Y0017000D02*
X0001625D01*
X0001500Y0017125D01*
Y0018500D01*
X0002000Y0019000D01*
X0008500D01*
X0009000Y0019500D01*
Y0021000D01*
X0010000Y0022000D01*
X0031000Y0013000D02*
Y0014000D01*
X0030500Y0014500D01*
X0021250D01*
X0020250Y0013500D01*
X0013000D01*
X0031000Y0006000D02*
Y0005500D01*
X0029500Y0004000D01*
X0001000D01*
X0010000Y0020000D02*
Y0020500D01*
X0012375Y0022875D01*
X0025125D01*
X0026000Y0022000D01*
X0006250Y0005750D02*
X0021000D01*
X0022250Y0007000D01*
X0031500D01*
X0032000Y0006500D01*
Y0005000D01*
X0019914Y0017000D02*
X0022000D01*
Y0016000D01*
X0014500Y0010750D02*
X0018500D01*
X0018793Y0010457D01*
X0019715D01*
X0029000Y0010000D02*
Y0011500D01*
X0028500Y0012000D01*
X0022000D01*
X0022985Y0017000D02*
X0022000D01*
Y0016000D01*
X0025000Y0009000D02*
X0026000Y0008000D01*
X0032750D01*
X0033000Y0018000D02*
X0027000D01*
X0022000Y0009000D02*
X0021172D01*
X0020750Y0009422D01*
Y0010457D01*
X0019715D01*
X0025000Y0009000D02*
X0024000Y0008000D01*
X0019750D01*
X0018250Y0009500D01*
X0006000D01*
G54D10*
Y0020000D03*
X0010000D03*
X0006000Y0022000D03*
X0010000D03*
X0024000Y0005000D03*
X0031000Y0010000D03*
G54D11*
X0022000Y0005000D03*
X0029000Y0010000D03*
G54D12*
X0025000Y0009000D03*
X0026000Y0010000D03*
X0022000Y0020000D03*
X0023000Y0021000D03*
X0013000Y0020000D03*
X0016000D03*
X0013000Y0022000D03*
X0016000D03*
X0022000Y0009000D03*
Y0012000D03*
Y0013000D03*
Y0016000D03*
G54D13*
X0026000Y0022000D03*
X0028000D03*
X0027000Y0021000D03*
X0026000Y0020000D03*
X0028000D03*
X0026000Y0019000D03*
X0028000D03*
X0027000Y0018000D03*
X0026000Y0017000D03*
X0028000D03*
X0031000Y0006000D03*
X0033000D03*
X0032000Y0005000D03*
X0031000Y0004000D03*
X0033000D03*
G54D14*
X0002000Y0014000D03*
Y0010063D03*
Y0008095D03*
X0019715Y0014590D03*
Y0010457D03*
Y0006717D03*
Y0002780D03*
X0004000Y0022000D03*
Y0020031D03*
G54D15*
X0024000Y0010000D03*
X0021000Y0021000D03*
G54D16*
X0025000Y0013000D03*
X0026000D03*
X0027000D03*
X0028000D03*
X0029000D03*
X0030000D03*
X0031000D03*
Y0016000D03*
X0030000D03*
X0029000D03*
X0028000D03*
X0027000D03*
X0026000D03*
X0025000D03*
X0024000D03*
X0027000Y0003000D03*
X0028000D03*
X0029000D03*
Y0006000D03*
X0028000D03*
X0027000D03*
X0026000D03*
G54D17*
X0024000Y0013000D03*
X0026000Y0003000D03*
G54D18*
X0002000Y0017000D03*
X0002512Y0018024D03*
X0003000Y0017000D03*
X0003535Y0018024D03*
X0003968Y0017000D03*
X0004559Y0018024D03*
X0019914Y0017000D03*
X0020426Y0018024D03*
X0022473D03*
X0022985Y0017000D03*
X0023497Y0018024D03*
X0019402D03*
G54D19*
X0033000Y0001000D03*
X0002000D03*
X0033000Y0022000D03*
X0002000D03*
G54D20*
X0006000Y0009500D03*
G54D22*
X0008000Y0020000D03*
X0007750Y0008000D03*
X0031750Y0009000D03*
X0018250Y0012500D03*
X0031500Y0011250D03*
X0013000Y0013500D03*
X0001000Y0004000D03*
X0006250Y0005750D03*
X0014500Y0010750D03*
X0032750Y0008000D03*
X0033000Y0018000D03*
M02*
