*
G04 Mass Parameters ***
*
G04 Image ***
*
%INF:\EIS\PROJECTS\TRANSCONDUCTANCE AMPLIFIER\ORCAD\LAYOUT\EIS_NICU_BOARD-10.AST*%
%ICAS*%
%MOIN*%
%IPPOS*%
%ASAXBY*%
G74*%FSLAN2X34Y34*%
*
G04 Aperture Definitions ***
*
%ADD10C,0.0550*%
%ADD11R,0.0550X0.0550*%
%ADD12C,0.0580*%
%ADD13C,0.1000*%
%ADD14R,0.0970X0.0970*%
%ADD15R,0.0580X0.0580*%
%ADD16C,0.0640*%
%ADD17C,0.1100*%
%ADD18C,0.0300*%
%ADD19C,0.0500*%
%ADD20C,0.0550*%
%ADD21R,0.0550X0.0550*%
%ADD22C,0.0580*%
%ADD23C,0.1000*%
%ADD24R,0.0970X0.0970*%
%ADD25R,0.0580X0.0580*%
%ADD26C,0.0640*%
%ADD27C,0.1100*%
%ADD28C,0.0500*%
%ADD29C,0.0100*%
%ADD30C,0.0120*%
%ADD31C,0.1050*%
%ADD32C,0.0550*%
%ADD33C,0.0080*%
%ADD34C,0.0010*%
%ADD35C,0.0200*%
%ADD36C,0.0520*%
%ADD37R,0.0520X0.0520*%
%ADD38C,0.0500*%
*
G04 Plot Data ***
*
G54D29*
G01X0001616Y0029489D02*
X0001350D01*
X0001305Y0029578D01*
Y0029667D01*
X0001350Y0029755D01*
X0001616D01*
X0001661Y0029667D01*
Y0029578D01*
X0001483Y0029222D01*
X0001061D02*
X0000883D01*
X0000972D02*
Y0029755D01*
X0000883Y0029667D01*
X0001750Y0003222D02*
X0001394D01*
X0001750Y0003578D01*
Y0003667D01*
X0001705Y0003755D01*
X0001439D01*
X0001394Y0003667D01*
X0001150Y0003222D02*
X0000794D01*
X0001150Y0003578D01*
Y0003667D01*
X0001105Y0003755D01*
X0000839D01*
X0000794Y0003667D01*
X0031661Y0003222D02*
X0031483D01*
X0031572D02*
Y0003755D01*
X0031483Y0003667D01*
X0031150Y0003222D02*
X0030794D01*
X0031150Y0003578D01*
Y0003667D01*
X0031105Y0003755D01*
X0030839D01*
X0030794Y0003667D01*
X0031528Y0029222D02*
X0031439Y0029311D01*
X0031394Y0029400D01*
Y0029578D01*
X0031439Y0029667D01*
X0031528Y0029755D01*
X0031617D01*
X0031705Y0029667D01*
X0031750Y0029578D01*
Y0029400D01*
X0031705Y0029311D01*
X0031617Y0029222D01*
X0031528D01*
X0031150D02*
X0030794D01*
X0031150Y0029578D01*
Y0029667D01*
X0031105Y0029755D01*
X0030839D01*
X0030794Y0029667D01*
X0002950Y0027958D02*
Y0027792D01*
X0002783Y0027458D01*
X0002617Y0027792D01*
Y0027958D01*
X0002042Y0027542D02*
X0002083Y0027458D01*
X0002333D01*
X0002375Y0027542D01*
Y0027708D01*
X0002292Y0027792D01*
X0002042D01*
Y0027958D01*
X0002375D01*
X0006317Y0028583D02*
X0006067Y0029083D01*
X0006317D02*
X0006067Y0028583D01*
X0005492D02*
X0005450Y0028667D01*
Y0029000D01*
X0005492Y0029083D01*
X0005742D01*
X0005783Y0029000D01*
Y0028667D01*
X0005742Y0028583D01*
X0005492D01*
X0004917D02*
Y0029083D01*
X0004875Y0028583D02*
X0005125D01*
X0005208Y0028667D01*
Y0028750D01*
X0005167Y0028833D01*
X0004917D02*
X0005167D01*
X0005208Y0028917D01*
Y0029000D01*
X0005125Y0029083D01*
X0004875D01*
X0004633Y0028833D02*
X0004300D01*
X0004633Y0028583D02*
Y0029083D01*
X0004300Y0028583D02*
Y0029083D01*
X0004058Y0028667D02*
X0004017Y0028583D01*
X0003767D01*
X0003725Y0028667D01*
Y0029000D01*
X0003767Y0029083D01*
X0004017D01*
X0004058Y0029000D01*
X0003483Y0029083D02*
Y0028583D01*
X0003400Y0028667D01*
X0003233Y0029000D01*
X0003150Y0029083D01*
Y0028583D01*
X0002908Y0029083D02*
Y0028667D01*
X0002867Y0028583D01*
X0002617D01*
X0002575Y0028667D01*
Y0029083D01*
X0002333Y0028583D02*
X0002042D01*
Y0029083D01*
X0007050Y0016542D02*
X0007092Y0016458D01*
X0007342D01*
X0007383Y0016542D01*
Y0016708D01*
X0007300Y0016792D01*
X0007050D01*
Y0016958D01*
X0007383D01*
X0006808Y0016458D02*
X0006642D01*
X0006725D02*
Y0016958D01*
X0006642Y0016875D01*
X0006025Y0016458D02*
Y0016958D01*
X0005983Y0016458D02*
X0006233D01*
X0006317Y0016625D01*
Y0016792D01*
X0006233Y0016958D01*
X0005983D01*
X0005408Y0016542D02*
X0005450Y0016458D01*
X0005700D01*
X0005742Y0016542D01*
Y0016708D01*
X0005658Y0016792D01*
X0005408D01*
Y0016958D01*
X0005742D01*
X0005167D02*
Y0016542D01*
X0005125Y0016458D01*
X0004875D01*
X0004833Y0016542D01*
Y0016958D01*
X0004592Y0016458D02*
X0004258D01*
X0004592Y0016792D01*
Y0016875D01*
X0004550Y0016958D01*
X0004300D01*
X0004258Y0016875D01*
X0004017Y0016458D02*
X0003850D01*
X0003933D02*
Y0016958D01*
X0003850Y0016875D01*
X0003192Y0016708D02*
X0003442D01*
X0003525Y0016792D01*
Y0016875D01*
X0003442Y0016958D01*
X0003192D01*
Y0016458D01*
X0002783Y0016708D02*
X0002950D01*
Y0016542D01*
X0002908Y0016458D01*
X0002658D01*
X0002617Y0016542D01*
Y0016875D01*
X0002658Y0016958D01*
X0002908D01*
X0002950Y0016875D01*
X0002083Y0016458D02*
Y0016958D01*
X0002042Y0016458D02*
X0002292D01*
X0002375Y0016625D01*
Y0016792D01*
X0002292Y0016958D01*
X0002042D01*
X0002867Y0017583D02*
X0002700D01*
X0002783D02*
Y0018083D01*
X0002700Y0018000D01*
X0002375Y0018083D02*
Y0017667D01*
X0002333Y0017583D01*
X0002083D01*
X0002042Y0017667D01*
Y0018083D01*
X0004258Y0023542D02*
X0004300Y0023458D01*
X0004550D01*
X0004592Y0023542D01*
Y0023708D01*
X0004508Y0023792D01*
X0004258D01*
Y0023958D01*
X0004592D01*
X0004017Y0023458D02*
X0003850D01*
X0003933D02*
Y0023958D01*
X0003850Y0023875D01*
X0003525Y0023458D02*
X0003192D01*
X0003525Y0023792D01*
Y0023875D01*
X0003483Y0023958D01*
X0003233D01*
X0003192Y0023875D01*
X0002658Y0023458D02*
Y0023958D01*
X0002617Y0023458D02*
X0002867D01*
X0002950Y0023625D01*
Y0023792D01*
X0002867Y0023958D01*
X0002617D01*
X0002375Y0023625D02*
X0002042D01*
X0002375Y0023458D02*
Y0023708D01*
X0002250Y0023958D01*
X0002167D01*
X0002042Y0023708D01*
Y0023458D01*
X0002617Y0024667D02*
X0002658Y0024583D01*
X0002908D01*
X0002950Y0024667D01*
Y0024833D01*
X0002867Y0024917D01*
X0002617D01*
Y0025083D01*
X0002950D01*
X0002375D02*
Y0024667D01*
X0002333Y0024583D01*
X0002083D01*
X0002042Y0024667D01*
Y0025083D01*
G54D33*
G01X0026916Y0027444D02*
X0026860D01*
X0027027Y0027333D02*
X0026916Y0027444D01*
X0027027Y0027555D01*
X0026860Y0027333D02*
Y0027666D01*
X0026645Y0027444D02*
X0026422D01*
X0026533Y0027666D01*
X0026589D01*
Y0027333D01*
X0026012Y0027388D02*
X0026040Y0027333D01*
X0026207D01*
X0026235Y0027388D01*
Y0027499D01*
X0026179Y0027555D01*
X0026012D01*
Y0027666D01*
X0026235D01*
X0025095Y0027333D02*
X0025067Y0027388D01*
Y0027499D01*
X0025095Y0027555D01*
X0025262D01*
X0025290Y0027499D01*
Y0027388D01*
X0025262Y0027333D01*
X0025095D01*
X0024852Y0027555D02*
X0024685D01*
X0024880Y0027333D02*
X0024768D01*
X0024741Y0027388D01*
Y0027666D01*
X0023935Y0027555D02*
X0023768D01*
X0023962Y0027333D02*
X0023851D01*
X0023824Y0027388D01*
Y0027666D01*
X0023552Y0027333D02*
X0023386D01*
X0023358Y0027388D01*
Y0027499D01*
X0023386Y0027555D01*
X0023552D01*
X0023580Y0027499D01*
Y0027444D01*
X0023358D01*
X0023142Y0027555D02*
X0022976D01*
X0022948Y0027499D01*
X0022976Y0027444D01*
X0023142D01*
X0023170Y0027388D01*
X0023142Y0027333D01*
X0022976D01*
X0022197Y0027555D02*
X0022031D01*
X0022003Y0027499D01*
X0022031Y0027444D01*
X0022197D01*
X0022225Y0027388D01*
X0022197Y0027333D01*
X0022031D01*
X0021704D02*
Y0027499D01*
X0021815Y0027333D02*
Y0027499D01*
X0021787Y0027555D01*
X0021732D01*
X0021704Y0027499D01*
X0021676Y0027555D01*
X0021621D01*
X0021593Y0027499D01*
Y0027333D01*
X0021405D02*
Y0027499D01*
X0021377Y0027555D01*
X0021211D01*
Y0027333D02*
Y0027666D01*
X0020829Y0027333D02*
X0020801Y0027388D01*
Y0027610D01*
X0020829Y0027666D01*
X0020995D01*
X0021023Y0027610D01*
Y0027388D01*
X0020995Y0027333D01*
X0020829D01*
X0020502Y0027444D02*
X0020446D01*
X0020613Y0027333D02*
X0020502Y0027444D01*
X0020613Y0027555D01*
X0020446Y0027333D02*
Y0027666D01*
X0020092Y0027333D02*
X0020036Y0027388D01*
X0020009Y0027444D01*
Y0027555D01*
X0020036Y0027610D01*
X0020092Y0027666D01*
X0020148D01*
X0020203Y0027610D01*
X0020231Y0027555D01*
Y0027444D01*
X0020203Y0027388D01*
X0020148Y0027333D01*
X0020092D01*
X0019682D02*
X0019626Y0027388D01*
X0019599Y0027444D01*
Y0027555D01*
X0019626Y0027610D01*
X0019682Y0027666D01*
X0019738D01*
X0019793Y0027610D01*
X0019821Y0027555D01*
Y0027444D01*
X0019793Y0027388D01*
X0019738Y0027333D01*
X0019682D01*
X0019411D02*
X0019300D01*
X0019355D02*
Y0027666D01*
X0019300Y0027610D01*
X0026967Y0005540D02*
Y0005318D01*
X0026745Y0005540D01*
X0026689D01*
X0026634Y0005513D01*
Y0005346D01*
X0026689Y0005318D01*
X0026634Y0005130D02*
X0026912D01*
X0026967Y0005103D01*
Y0004936D01*
X0026912Y0004908D01*
X0026634D01*
X0028187Y0006549D02*
X0028242Y0006577D01*
Y0006744D01*
X0028187Y0006772D01*
X0028076D01*
X0028020Y0006716D01*
Y0006549D01*
X0027909D01*
Y0006772D01*
X0028242Y0006362D02*
Y0006251D01*
Y0006306D02*
X0027909D01*
X0027964Y0006251D01*
X0028242Y0006007D02*
Y0005896D01*
Y0005952D02*
X0027909D01*
X0027964Y0005896D01*
X0028242Y0005653D02*
Y0005542D01*
Y0005598D02*
X0027909D01*
X0027964Y0005542D01*
X0028242Y0005188D02*
X0027909D01*
Y0005299D02*
Y0005076D01*
X0028242Y0004889D02*
Y0004694D01*
X0027909D01*
X0022820Y0005849D02*
X0022987D01*
X0023014Y0005794D01*
Y0005738D01*
X0022987Y0005683D01*
X0022820D01*
X0022792Y0005738D01*
Y0005794D01*
X0022903Y0006016D01*
X0022604Y0005738D02*
X0022577Y0005683D01*
X0022410D01*
X0022382Y0005738D01*
Y0005960D01*
X0022410Y0006016D01*
X0022577D01*
X0022604Y0005960D01*
X0025130Y0004424D02*
X0024963D01*
X0024935Y0004368D01*
Y0004257D01*
X0024963Y0004201D01*
X0025130D01*
X0024720D02*
X0024553D01*
X0024525Y0004257D01*
Y0004368D01*
X0024553Y0004424D01*
X0024720D01*
X0024748Y0004368D01*
Y0004313D01*
X0024525D01*
X0024338Y0004201D02*
X0024226D01*
X0024282D02*
Y0004535D01*
X0024226D01*
X0023955Y0004368D02*
X0023789D01*
X0024011Y0004201D02*
X0023789D01*
Y0004535D01*
X0024011D01*
X0023010Y0004368D02*
X0022844D01*
Y0004201D02*
Y0004535D01*
X0023066D01*
X0022628Y0004424D02*
Y0004201D01*
X0022656D02*
X0022461D01*
X0022434Y0004257D01*
Y0004424D01*
X0022246Y0004201D02*
X0022135D01*
X0022190D02*
Y0004535D01*
X0022135Y0004479D01*
X0022000Y0004382D02*
Y0004116D01*
X0022133Y0004249D02*
X0021867D01*
X0026015Y0012594D02*
X0025793D01*
X0025904Y0012816D01*
X0025960D01*
Y0012483D01*
X0025522Y0012649D02*
X0025605Y0012483D01*
X0025383Y0012649D02*
X0025550D01*
X0025605Y0012705D01*
Y0012760D01*
X0025550Y0012816D01*
X0025383D01*
Y0012483D01*
X0032040Y0011444D02*
X0031984D01*
X0032151Y0011333D02*
X0032040Y0011444D01*
X0032151Y0011555D01*
X0031984Y0011333D02*
Y0011666D01*
X0031769Y0011333D02*
X0031658D01*
X0031713D02*
Y0011666D01*
X0031658Y0011610D01*
X0030685Y0011333D02*
X0030657Y0011388D01*
Y0011499D01*
X0030685Y0011555D01*
X0030852D01*
X0030880Y0011499D01*
Y0011388D01*
X0030852Y0011333D01*
X0030685D01*
X0030442Y0011555D02*
X0030275D01*
X0030470Y0011333D02*
X0030358D01*
X0030331Y0011388D01*
Y0011666D01*
X0029525Y0011555D02*
X0029358D01*
X0029552Y0011333D02*
X0029441D01*
X0029414Y0011388D01*
Y0011666D01*
X0029142Y0011333D02*
X0028976D01*
X0028948Y0011388D01*
Y0011499D01*
X0028976Y0011555D01*
X0029142D01*
X0029170Y0011499D01*
Y0011444D01*
X0028948D01*
X0028732Y0011555D02*
X0028566D01*
X0028538Y0011499D01*
X0028566Y0011444D01*
X0028732D01*
X0028760Y0011388D01*
X0028732Y0011333D01*
X0028566D01*
X0027787Y0011555D02*
X0027621D01*
X0027593Y0011499D01*
X0027621Y0011444D01*
X0027787D01*
X0027815Y0011388D01*
X0027787Y0011333D01*
X0027621D01*
X0027294D02*
Y0011499D01*
X0027405Y0011333D02*
Y0011499D01*
X0027377Y0011555D01*
X0027322D01*
X0027294Y0011499D01*
X0027266Y0011555D01*
X0027211D01*
X0027183Y0011499D01*
Y0011333D01*
X0026995D02*
Y0011499D01*
X0026967Y0011555D01*
X0026801D01*
Y0011333D02*
Y0011666D01*
X0026419Y0011333D02*
X0026391Y0011388D01*
Y0011610D01*
X0026419Y0011666D01*
X0026585D01*
X0026613Y0011610D01*
Y0011388D01*
X0026585Y0011333D01*
X0026419D01*
X0026092Y0011444D02*
X0026036D01*
X0026203Y0011333D02*
X0026092Y0011444D01*
X0026203Y0011555D01*
X0026036Y0011333D02*
Y0011666D01*
X0025682Y0011333D02*
X0025626Y0011388D01*
X0025599Y0011444D01*
Y0011555D01*
X0025626Y0011610D01*
X0025682Y0011666D01*
X0025738D01*
X0025793Y0011610D01*
X0025821Y0011555D01*
Y0011444D01*
X0025793Y0011388D01*
X0025738Y0011333D01*
X0025682D01*
X0025411D02*
X0025300D01*
X0025355D02*
Y0011666D01*
X0025300Y0011610D01*
X0030959Y0011683D02*
X0030848D01*
X0030903D02*
Y0012016D01*
X0030848Y0011960D01*
X0030604Y0011738D02*
X0030577Y0011683D01*
X0030410D01*
X0030382Y0011738D01*
Y0011960D01*
X0030410Y0012016D01*
X0030577D01*
X0030604Y0011960D01*
X0033130Y0010424D02*
X0032963D01*
X0032935Y0010368D01*
Y0010257D01*
X0032963Y0010201D01*
X0033130D01*
X0032720D02*
X0032553D01*
X0032525Y0010257D01*
Y0010368D01*
X0032553Y0010424D01*
X0032720D01*
X0032748Y0010368D01*
Y0010313D01*
X0032525D01*
X0032338Y0010201D02*
X0032226D01*
X0032282D02*
Y0010535D01*
X0032226D01*
X0031955Y0010368D02*
X0031789D01*
X0032011Y0010201D02*
X0031789D01*
Y0010535D01*
X0032011D01*
X0031010Y0010368D02*
X0030844D01*
Y0010201D02*
Y0010535D01*
X0031066D01*
X0030628Y0010424D02*
Y0010201D01*
X0030656D02*
X0030461D01*
X0030434Y0010257D01*
Y0010424D01*
X0030246Y0010201D02*
X0030135D01*
X0030190D02*
Y0010535D01*
X0030135Y0010479D01*
X0030000Y0010382D02*
Y0010116D01*
X0030133Y0010249D02*
X0029867D01*
X0021637Y0016167D02*
X0021692Y0016195D01*
Y0016362D01*
X0021637Y0016389D01*
X0021526D01*
X0021470Y0016334D01*
Y0016167D01*
X0021359D01*
Y0016389D01*
X0021637Y0015979D02*
X0021692Y0015952D01*
Y0015785D01*
X0021637Y0015757D01*
X0021414D01*
X0021359Y0015785D01*
Y0015952D01*
X0021414Y0015979D01*
X0022201Y0021611D02*
Y0021444D01*
X0022257Y0021416D01*
X0022368D01*
X0022423Y0021444D01*
Y0021611D01*
X0022090Y0021173D03*
X0022423Y0021229D02*
Y0021117D01*
Y0021173D02*
X0022201D01*
Y0021117D01*
X0022423Y0020791D02*
X0022257D01*
X0022423Y0020902D02*
X0022257D01*
X0022201Y0020874D01*
Y0020819D01*
X0022257Y0020791D01*
X0022201Y0020763D01*
Y0020707D01*
X0022257Y0020680D01*
X0022423D01*
X0022201Y0020325D02*
Y0020436D01*
X0022257Y0020464D01*
X0022368D01*
X0022423Y0020492D01*
Y0020297D01*
X0022368Y0020270D01*
X0022312Y0020297D01*
Y0020464D01*
X0022201Y0020082D02*
Y0019971D01*
X0022257Y0019943D01*
Y0019887D01*
X0022201D02*
X0022423D01*
Y0019672D02*
Y0019505D01*
X0022368Y0019477D01*
X0022257D01*
X0022201Y0019505D01*
Y0019672D01*
X0022257Y0019700D01*
X0022312D01*
Y0019477D01*
X0022368Y0019290D02*
X0022423Y0019262D01*
Y0019095D01*
X0022368Y0019067D01*
X0022146D01*
X0022090Y0019095D01*
Y0019262D01*
X0022146Y0019290D01*
X0022257Y0018289D02*
Y0018122D01*
X0022423D02*
X0022090D01*
Y0018345D01*
X0022201Y0017907D02*
X0022423D01*
Y0017935D02*
Y0017740D01*
X0022368Y0017712D01*
X0022201D01*
X0022423Y0016990D02*
Y0016879D01*
Y0016934D02*
X0022090D01*
X0022146Y0016879D01*
X0022423Y0016496D02*
X0022368Y0016441D01*
X0022312Y0016413D01*
X0022201D01*
X0022146Y0016441D01*
X0022090Y0016496D01*
Y0016552D01*
X0022146Y0016608D01*
X0022201Y0016635D01*
X0022312D01*
X0022368Y0016608D01*
X0022423Y0016552D01*
Y0016496D01*
Y0016170D02*
Y0016225D01*
X0022368D01*
Y0016170D01*
X0022423D01*
Y0015788D02*
X0022368Y0015732D01*
X0022312Y0015704D01*
X0022201D01*
X0022146Y0015732D01*
X0022090Y0015788D01*
Y0015843D01*
X0022146Y0015899D01*
X0022201Y0015927D01*
X0022312D01*
X0022368Y0015899D01*
X0022423Y0015843D01*
Y0015788D01*
X0027567Y0021959D02*
Y0021848D01*
Y0021903D02*
X0027234D01*
X0027289Y0021848D01*
X0027401Y0021521D02*
X0027567Y0021604D01*
X0027401Y0021382D02*
Y0021549D01*
X0027345Y0021604D01*
X0027289D01*
X0027234Y0021549D01*
Y0021382D01*
X0027567D01*
X0028548Y0022518D02*
X0028493Y0022462D01*
X0028437Y0022434D01*
X0028326D01*
X0028271Y0022462D01*
X0028215Y0022518D01*
Y0022573D01*
X0028271Y0022629D01*
X0028326Y0022657D01*
X0028437D01*
X0028493Y0022629D01*
X0028548Y0022573D01*
Y0022518D01*
Y0022108D02*
X0028493Y0022052D01*
X0028437Y0022024D01*
X0028326D01*
X0028271Y0022052D01*
X0028215Y0022108D01*
Y0022163D01*
X0028271Y0022219D01*
X0028326Y0022247D01*
X0028437D01*
X0028493Y0022219D01*
X0028548Y0022163D01*
Y0022108D01*
Y0021698D02*
X0028493Y0021642D01*
X0028437Y0021614D01*
X0028326D01*
X0028271Y0021642D01*
X0028215Y0021698D01*
Y0021753D01*
X0028271Y0021809D01*
X0028326Y0021837D01*
X0028437D01*
X0028493Y0021809D01*
X0028548Y0021753D01*
Y0021698D01*
Y0021427D02*
Y0021204D01*
X0028326Y0021427D01*
X0028271D01*
X0028215Y0021399D01*
Y0021232D01*
X0028271Y0021204D01*
X0014362Y0026474D02*
X0014195D01*
X0014167Y0026530D01*
Y0026585D01*
X0014195Y0026641D01*
X0014362D01*
X0014389Y0026585D01*
Y0026530D01*
X0014278Y0026308D01*
X0013979Y0026363D02*
X0013952Y0026308D01*
X0013785D01*
X0013757Y0026363D01*
Y0026585D01*
X0013785Y0026641D01*
X0013952D01*
X0013979Y0026585D01*
X0019583Y0025799D02*
X0019416D01*
X0019388Y0025743D01*
Y0025632D01*
X0019416Y0025576D01*
X0019583D01*
X0019145Y0025909D02*
Y0025910D01*
Y0025909D01*
X0019201Y0025576D02*
X0019090D01*
X0019145D02*
Y0025799D01*
X0019090D01*
X0018763Y0025576D02*
Y0025743D01*
X0018874Y0025576D02*
Y0025743D01*
X0018846Y0025799D01*
X0018791D01*
X0018763Y0025743D01*
X0018735Y0025799D01*
X0018680D01*
X0018652Y0025743D01*
Y0025576D01*
X0018297Y0025799D02*
X0018408D01*
X0018436Y0025743D01*
Y0025632D01*
X0018464Y0025576D01*
X0018270D01*
X0018242Y0025632D01*
X0018270Y0025688D01*
X0018436D01*
X0018054Y0025799D02*
X0017943D01*
X0017915Y0025743D01*
X0017860D01*
Y0025799D02*
Y0025576D01*
X0017644D02*
X0017477D01*
X0017450Y0025632D01*
Y0025743D01*
X0017477Y0025799D01*
X0017644D01*
X0017672Y0025743D01*
Y0025688D01*
X0017450D01*
X0017262Y0025799D02*
X0017095D01*
X0017067Y0025743D01*
Y0025632D01*
X0017095Y0025576D01*
X0017262D01*
X0016289Y0025743D02*
X0016122D01*
Y0025576D02*
Y0025910D01*
X0016345D01*
X0015907Y0025799D02*
Y0025576D01*
X0015935D02*
X0015740D01*
X0015712Y0025632D01*
Y0025799D01*
X0014990Y0025576D02*
X0014879D01*
X0014934D02*
Y0025910D01*
X0014879Y0025854D01*
X0014496Y0025576D02*
X0014441Y0025632D01*
X0014413Y0025688D01*
Y0025799D01*
X0014441Y0025854D01*
X0014496Y0025910D01*
X0014552D01*
X0014608Y0025854D01*
X0014635Y0025799D01*
Y0025688D01*
X0014608Y0025632D01*
X0014552Y0025576D01*
X0014496D01*
X0014170D02*
X0014225D01*
Y0025632D01*
X0014170D01*
Y0025576D01*
X0013788D02*
X0013732Y0025632D01*
X0013704Y0025688D01*
Y0025799D01*
X0013732Y0025854D01*
X0013788Y0025910D01*
X0013843D01*
X0013899Y0025854D01*
X0013927Y0025799D01*
Y0025688D01*
X0013899Y0025632D01*
X0013843Y0025576D01*
X0013788D01*
X0029488Y0027208D02*
X0029433Y0027152D01*
Y0027041D01*
X0029488Y0026985D01*
X0029544D01*
X0029655Y0027097D01*
X0029766Y0026985D01*
Y0027208D01*
X0029599Y0027479D02*
X0029433Y0027395D01*
X0029599Y0027618D02*
Y0027451D01*
X0029655Y0027395D01*
X0029710D01*
X0029766Y0027451D01*
Y0027618D01*
X0029433D01*
X0028451Y0026948D02*
X0028507Y0027003D01*
X0028563Y0027031D01*
X0028674D01*
X0028729Y0027003D01*
X0028785Y0026948D01*
Y0026892D01*
X0028729Y0026837D01*
X0028674Y0026809D01*
X0028563D01*
X0028507Y0026837D01*
X0028451Y0026892D01*
Y0026948D01*
Y0027358D02*
X0028507Y0027413D01*
X0028563Y0027441D01*
X0028674D01*
X0028729Y0027413D01*
X0028785Y0027358D01*
Y0027302D01*
X0028729Y0027247D01*
X0028674Y0027219D01*
X0028563D01*
X0028507Y0027247D01*
X0028451Y0027302D01*
Y0027358D01*
Y0027629D02*
Y0027740D01*
Y0027684D02*
X0028785D01*
X0028729Y0027740D01*
X0021692Y0010223D02*
X0021359Y0010389D01*
Y0010167D01*
X0021637Y0009979D02*
X0021692Y0009952D01*
Y0009785D01*
X0021637Y0009757D01*
X0021414D01*
X0021359Y0009785D01*
Y0009952D01*
X0021414Y0009979D01*
X0022201Y0015583D02*
Y0015416D01*
X0022257Y0015388D01*
X0022368D01*
X0022423Y0015416D01*
Y0015583D01*
X0022090Y0015145D03*
X0022423Y0015201D02*
Y0015090D01*
Y0015145D02*
X0022201D01*
Y0015090D01*
X0022423Y0014763D02*
X0022257D01*
X0022423Y0014874D02*
X0022257D01*
X0022201Y0014846D01*
Y0014791D01*
X0022257Y0014763D01*
X0022201Y0014735D01*
Y0014680D01*
X0022257Y0014652D01*
X0022423D01*
X0022201Y0014297D02*
Y0014408D01*
X0022257Y0014436D01*
X0022368D01*
X0022423Y0014464D01*
Y0014270D01*
X0022368Y0014242D01*
X0022312Y0014270D01*
Y0014436D01*
X0022201Y0014054D02*
Y0013943D01*
X0022257Y0013915D01*
Y0013860D01*
X0022201D02*
X0022423D01*
Y0013644D02*
Y0013477D01*
X0022368Y0013450D01*
X0022257D01*
X0022201Y0013477D01*
Y0013644D01*
X0022257Y0013672D01*
X0022312D01*
Y0013450D01*
X0022201Y0013262D02*
Y0013095D01*
X0022257Y0013067D01*
X0022368D01*
X0022423Y0013095D01*
Y0013262D01*
X0022257Y0012289D02*
Y0012122D01*
X0022423D02*
X0022090D01*
Y0012345D01*
X0022201Y0011907D02*
X0022423D01*
Y0011935D02*
Y0011740D01*
X0022368Y0011712D01*
X0022201D01*
X0022423Y0010990D02*
Y0010879D01*
Y0010934D02*
X0022090D01*
X0022146Y0010879D01*
X0022423Y0010496D02*
X0022368Y0010441D01*
X0022312Y0010413D01*
X0022201D01*
X0022146Y0010441D01*
X0022090Y0010496D01*
Y0010552D01*
X0022146Y0010608D01*
X0022201Y0010635D01*
X0022312D01*
X0022368Y0010608D01*
X0022423Y0010552D01*
Y0010496D01*
Y0010170D02*
Y0010225D01*
X0022368D01*
Y0010170D01*
X0022423D01*
Y0009788D02*
X0022368Y0009732D01*
X0022312Y0009704D01*
X0022201D01*
X0022146Y0009732D01*
X0022090Y0009788D01*
Y0009843D01*
X0022146Y0009899D01*
X0022201Y0009927D01*
X0022312D01*
X0022368Y0009899D01*
X0022423Y0009843D01*
Y0009788D01*
X0030474Y0015833D02*
Y0016166D01*
X0030446Y0015833D02*
X0030613D01*
X0030669Y0015944D01*
Y0016055D01*
X0030613Y0016166D01*
X0030446D01*
X0030259Y0015944D02*
X0030036D01*
X0030259Y0015833D02*
Y0015999D01*
X0030175Y0016166D01*
X0030120D01*
X0030036Y0015999D01*
Y0015833D01*
X0029849Y0016166D02*
X0029682Y0015833D01*
X0029467Y0015944D02*
X0029244D01*
X0029355Y0016166D01*
X0029411D01*
Y0015833D01*
X0029057D02*
X0028834D01*
X0029057Y0016055D01*
Y0016110D01*
X0029029Y0016166D01*
X0028862D01*
X0028834Y0016110D01*
X0028452Y0015999D02*
X0028619D01*
X0028647Y0015944D01*
Y0015888D01*
X0028619Y0015833D01*
X0028452D01*
X0028424Y0015888D01*
Y0015944D01*
X0028535Y0016166D01*
X0028042Y0015833D02*
Y0016166D01*
X0028014Y0015833D02*
X0028181D01*
X0028237Y0015944D01*
Y0016055D01*
X0028181Y0016166D01*
X0028014D01*
X0027827Y0015944D02*
X0027604D01*
X0027827Y0015833D02*
Y0015999D01*
X0027743Y0016166D01*
X0027688D01*
X0027604Y0015999D01*
Y0015833D01*
X0028138Y0016988D02*
X0028194Y0016933D01*
X0028305D01*
X0028360Y0016988D01*
Y0017044D01*
X0028249Y0017155D01*
X0028360Y0017266D01*
X0028138D01*
X0027950D02*
Y0016988D01*
X0027923Y0016933D01*
X0027756D01*
X0027728Y0016988D01*
Y0017266D01*
X0014362Y0028474D02*
X0014389Y0028530D01*
Y0028585D01*
X0014362Y0028641D01*
X0014195D01*
X0014167Y0028585D01*
Y0028530D01*
X0014195Y0028474D01*
X0014362D01*
X0014389Y0028419D01*
Y0028363D01*
X0014362Y0028308D01*
X0014195D01*
X0014167Y0028363D01*
Y0028419D01*
X0014195Y0028474D01*
X0013979Y0028363D02*
X0013952Y0028308D01*
X0013785D01*
X0013757Y0028363D01*
Y0028585D01*
X0013785Y0028641D01*
X0013952D01*
X0013979Y0028585D01*
X0019583Y0027799D02*
X0019416D01*
X0019388Y0027743D01*
Y0027632D01*
X0019416Y0027576D01*
X0019583D01*
X0019145Y0027909D02*
Y0027910D01*
Y0027909D01*
X0019201Y0027576D02*
X0019090D01*
X0019145D02*
Y0027799D01*
X0019090D01*
X0018763Y0027576D02*
Y0027743D01*
X0018874Y0027576D02*
Y0027743D01*
X0018846Y0027799D01*
X0018791D01*
X0018763Y0027743D01*
X0018735Y0027799D01*
X0018680D01*
X0018652Y0027743D01*
Y0027576D01*
X0018297Y0027799D02*
X0018408D01*
X0018436Y0027743D01*
Y0027632D01*
X0018464Y0027576D01*
X0018270D01*
X0018242Y0027632D01*
X0018270Y0027688D01*
X0018436D01*
X0018054Y0027799D02*
X0017943D01*
X0017915Y0027743D01*
X0017860D01*
Y0027799D02*
Y0027576D01*
X0017644D02*
X0017477D01*
X0017450Y0027632D01*
Y0027743D01*
X0017477Y0027799D01*
X0017644D01*
X0017672Y0027743D01*
Y0027688D01*
X0017450D01*
X0017262Y0027799D02*
X0017095D01*
X0017067Y0027743D01*
Y0027632D01*
X0017095Y0027576D01*
X0017262D01*
X0016289Y0027743D02*
X0016122D01*
Y0027576D02*
Y0027910D01*
X0016345D01*
X0015907Y0027799D02*
Y0027576D01*
X0015935D02*
X0015740D01*
X0015712Y0027632D01*
Y0027799D01*
X0014990Y0027576D02*
X0014879D01*
X0014934D02*
Y0027910D01*
X0014879Y0027854D01*
X0014496Y0027576D02*
X0014441Y0027632D01*
X0014413Y0027688D01*
Y0027799D01*
X0014441Y0027854D01*
X0014496Y0027910D01*
X0014552D01*
X0014608Y0027854D01*
X0014635Y0027799D01*
Y0027688D01*
X0014608Y0027632D01*
X0014552Y0027576D01*
X0014496D01*
X0014170D02*
X0014225D01*
Y0027632D01*
X0014170D01*
Y0027576D01*
X0013788D02*
X0013732Y0027632D01*
X0013704Y0027688D01*
Y0027799D01*
X0013732Y0027854D01*
X0013788Y0027910D01*
X0013843D01*
X0013899Y0027854D01*
X0013927Y0027799D01*
Y0027688D01*
X0013899Y0027632D01*
X0013843Y0027576D01*
X0013788D01*
X0020015Y0028483D02*
X0019793D01*
X0020015Y0028705D01*
Y0028760D01*
X0019988Y0028816D01*
X0019821D01*
X0019793Y0028760D01*
X0019522Y0028649D02*
X0019605Y0028483D01*
X0019383Y0028649D02*
X0019550D01*
X0019605Y0028705D01*
Y0028760D01*
X0019550Y0028816D01*
X0019383D01*
Y0028483D01*
X0021750Y0025000D02*
Y0025125D01*
X0018250D01*
Y0025000D01*
X0018000D01*
Y0029000D01*
X0022000D01*
Y0025000D01*
X0021750D01*
X0026500Y0003500D02*
Y0007500D01*
X0028500D01*
Y0003500D01*
X0026500D01*
X0027750Y0009000D02*
Y0009125D01*
X0024250D01*
Y0009000D01*
X0024000D01*
Y0013000D01*
X0028000D01*
Y0009000D01*
X0027750D01*
X0022000Y0015750D02*
Y0015500D01*
X0022500Y0017250D02*
Y0015750D01*
X0021500D01*
Y0017250D01*
X0022500D01*
X0022000D02*
Y0017500D01*
X0027500Y0023125D02*
X0028500D01*
Y0020875D01*
X0027500D01*
Y0023125D01*
X0028000Y0020875D02*
Y0020500D01*
Y0023500D02*
Y0023125D01*
X0013750Y0026000D02*
X0013500D01*
X0015250Y0025500D02*
X0013750D01*
Y0026500D01*
X0015250D01*
Y0025500D01*
Y0026000D02*
X0015500D01*
X0029500Y0025875D02*
X0028500D01*
Y0028125D01*
X0029500D01*
Y0025875D01*
X0029000Y0028125D02*
Y0028500D01*
Y0025500D02*
Y0025875D01*
X0022000Y0009750D02*
Y0009500D01*
X0022500Y0011250D02*
Y0009750D01*
X0021500D01*
Y0011250D01*
X0022500D01*
X0022000D02*
Y0011500D01*
X0024000Y0016000D02*
Y0017000D01*
Y0017500D01*
X0033000D01*
Y0015500D01*
X0024000D01*
Y0016000D01*
X0024250D01*
Y0017000D01*
X0024000D01*
X0013750Y0028000D02*
X0013500D01*
X0015250Y0027500D02*
X0013750D01*
Y0028500D01*
X0015250D01*
Y0027500D01*
Y0028000D02*
X0015500D01*
G01X0021500Y0005000D02*
G03X0023000Y0003500I0001500J0000000D01*
G03X0024500Y0005000I0000000J0001500D01*
G03X0023000Y0006500I0001500J0000000D01*
G03X0021500Y0005000I0000000J0001500D01*
G01X0029500Y0011000D02*
G03X0031000Y0009500I0001500J0000000D01*
G03X0032500Y0011000I0000000J0001500D01*
G03X0031000Y0012500I0001500J0000000D01*
G03X0029500Y0011000I0000000J0001500D01*
G54D38*
G01X0000000Y0000000D02*
X0034000D01*
Y0030000D01*
X0000000D01*
Y0000000D01*
G54D20*
X0029000Y0029000D03*
Y0025000D03*
X0028000Y0020000D03*
Y0024000D03*
X0024000Y0005000D03*
X0032000Y0011000D03*
G54D21*
X0022000Y0005000D03*
X0030000Y0011000D03*
G54D22*
X0026000Y0015000D03*
X0027000D03*
X0028000D03*
X0029000D03*
X0030000D03*
X0031000D03*
X0032000D03*
Y0018000D03*
X0031000D03*
X0030000D03*
X0029000D03*
X0028000D03*
X0027000D03*
X0026000D03*
X0025000D03*
X0029000Y0005000D03*
Y0006000D03*
Y0007000D03*
X0026000D03*
Y0006000D03*
Y0005000D03*
Y0004000D03*
G54D25*
X0025000Y0015000D03*
X0029000Y0004000D03*
G54D36*
X0026000Y0010000D03*
X0027000Y0011000D03*
X0020000Y0026000D03*
X0021000Y0027000D03*
X0013000Y0026000D03*
X0016000D03*
X0013000Y0028000D03*
X0016000D03*
X0022000Y0009000D03*
Y0012000D03*
Y0015000D03*
Y0018000D03*
G54D37*
X0025000Y0011000D03*
X0019000Y0027000D03*
M02*
